<?xml version="1.0" encoding="UTF-8"?>
<svg xmlns="http://www.w3.org/2000/svg" viewBox="94 116 255 258" width="255" height="258">
<path d="M0.25 0.25C421.42 0.25 842.58 0.25 1263.75 0.25C1263.75 316.42 1263.75 632.58 1263.75 948.75C842.58 948.75 421.42 948.75 0.25 948.75C0.25 632.58 0.25 316.42 0.25 0.25ZM203.5 126.02C202.17 130.85 200.83 135.67 199.5 140.5C195.35 141.83 191.19 143.17 187.03 144.5C191.19 145.93 195.34 147.37 199.5 148.8C200.83 153.58 202.17 158.36 203.5 163.14C204.79 158.6 206.07 154.05 207.36 149.5C211.74 147.87 216.12 146.24 220.5 144.6C216.5 143.35 212.5 142.1 208.5 140.85C206.83 135.91 205.17 130.96 203.5 126.02ZM1044.82 167.5C1041.36 166.56 1032.19 165.12 1029.98 162.51C1026.28 158.11 1027.66 150.23 1025.26 145.5C1022.84 150.36 1023.79 158.32 1020.01 162.52C1017.04 165.84 1009.38 166.33 1005.3 167.5C1008.74 170.78 1016.77 168.94 1020.29 173.14C1023.75 177.27 1021.81 185.1 1025.5 188.7C1026.22 184.91 1027.78 174.61 1030.83 172.38C1034.87 169.43 1041.41 170.48 1044.82 167.5ZM195.22 166.5C184.02 165.7 171.36 170.07 161.29 174.76C126.71 190.84 103.99 226.12 104.39 264.5C104.97 319.55 149.98 365.1 205.5 364.08C221.93 363.78 238.54 359.63 252.75 351.28C268.54 342.01 282.83 328.58 290.08 311.5C284.55 310.36 279.03 309.22 273.5 308.07C250.3 352.11 188.58 359.44 151.62 328.91C122.4 304.76 113.66 265.95 127.55 231.08C132.53 218.57 141.32 207.69 151.82 199.35C163.89 189.78 177.81 185.08 192.78 182.5C193.59 177.17 194.41 171.83 195.22 166.5ZM212.5 166.2C213.17 171.48 213.83 176.76 214.5 182.04C240.45 187.36 251.56 193.06 269.5 212.56C275.24 211.21 280.98 209.85 286.73 208.5C273.23 184.18 239.68 166.81 212.5 166.2ZM187.91 252.03C170.89 256.19 153.88 260.34 136.87 264.5C153.99 267.47 171.15 270.58 187.85 275.5C193.07 296.6 198.28 317.71 203.5 338.81C208.83 317.85 214.17 296.9 219.5 275.94C224.42 273.7 230.08 272.88 235.37 271.71C247.88 268.94 260.37 266.56 273.01 264.5C255.16 260.33 237.3 256.17 219.45 252C214.19 226.17 208.93 200.33 203.67 174.5C198.41 200.34 193.16 226.19 187.91 252.03ZM1127.01 244.5C1111.05 221.01 1087.62 202.37 1059.54 195.83C1053.85 194.51 1040.56 190.92 1035.5 193.18C1036.4 199.29 1037.31 205.39 1038.21 211.5C1046.32 213.43 1054.39 214.41 1062.32 217.26C1079.9 223.58 1093.58 234.95 1105.5 249C1112.16 248.95 1121.06 247.47 1127.01 244.5ZM924.12 317.04C924.08 315.72 924.04 314.39 924 313.07C923.99 311.35 923.99 309.64 923.99 307.92C924.03 306.9 924.07 305.88 924.11 304.86C925.5 301.17 925.21 296.5 925.97 292.5C927.22 285.91 929.07 279.37 931.63 273.17C945.91 238.67 975.36 218.32 1011.5 212.21C1012.55 205.97 1013.59 199.74 1014.64 193.5C1003.74 191.14 986.34 197.07 976.13 201.59C941.49 216.92 914.73 249.17 907.16 286.55C894.22 350.46 936.7 414.57 1000.64 427.69C1022.31 432.13 1044.06 430.22 1064.97 423.5C1084.31 417.28 1102.79 404.86 1115.66 389.15C1120.83 382.84 1128.24 374.68 1129.61 366.5C1123.24 365.1 1116.87 363.71 1110.5 362.31C1107.45 365.82 1105.44 370.3 1102.5 373.99C1096.16 381.92 1088.54 388.99 1079.96 394.46C1034.66 423.34 977.96 411.93 945.13 370.32C936.78 359.74 930.69 347.29 927.34 334.25C925.92 328.72 925.98 322.22 924.12 317.04ZM1006.58 297.93C987.15 302.79 967.72 307.64 948.29 312.5C960.31 315.06 972.49 317.33 984.55 319.8C991.96 321.31 999.81 322.71 1006.85 325.5C1012.55 342.72 1015.24 361.03 1019.82 378.56C1021.23 383.95 1022.26 395.96 1025.5 399.76C1031.57 375.01 1037.64 350.25 1043.72 325.5C1057.48 320.7 1072.43 318.2 1086.71 315.36C1091.38 314.43 1101.32 313.94 1104.77 311.5C1084.35 306.97 1063.92 302.44 1043.5 297.92C1037.5 266.69 1031.5 235.47 1025.5 204.24C1023.26 206.8 1023.34 211.09 1022.77 214.47C1021.87 219.79 1020.73 225.1 1019.71 230.41C1017.16 243.75 1014.43 257.13 1012.15 270.52C1010.63 279.38 1009.75 289.54 1006.58 297.93ZM345.66 230.33C311.5 236.44 320.23 290.89 355.43 284.74C383.76 279.79 385.47 237.86 357.65 230.7C353.67 229.67 349.7 229.61 345.66 230.33ZM413.26 230.46C413.26 248.28 413.26 266.11 413.26 283.94C415.98 283.94 418.71 283.94 421.43 283.94C421.96 273.9 419.66 262.15 422.5 252.58C428.17 259.44 433.83 266.3 439.5 273.16C445.65 266.17 451.8 259.18 457.96 252.19C457.96 262.78 457.96 273.38 457.96 283.98C460.69 283.98 463.43 283.98 466.17 283.98C466.17 266.15 466.17 248.33 466.17 230.5C457.28 240.66 448.39 250.83 439.5 260.99C430.75 250.81 422.01 240.63 413.26 230.46ZM593.5 230.15C585.5 248.09 577.5 266.02 569.5 283.96C572.17 283.96 574.83 283.96 577.5 283.96C578.89 280.97 580.28 277.98 581.67 274.98C589.28 274.98 596.89 274.98 604.5 274.98C605.83 277.96 607.17 280.94 608.5 283.91C611.41 283.91 614.32 283.91 617.22 283.91C609.32 265.99 601.41 248.07 593.5 230.15ZM684.56 238.5C680.11 225.19 653.74 227.33 652.48 242.79C651.63 253.16 659.58 257.14 667.77 260.71C671.79 262.46 678.08 264.2 678.38 269.5C678.71 275.36 672.66 278.02 667.63 277.62C662.58 277.22 659.25 274.16 656.5 270.21C654.33 271.64 652.16 273.07 649.99 274.5C658.4 289.55 686.27 288.96 687.04 270.5C687.47 259.98 678.63 256.63 670.49 253.02C667.03 251.49 661.54 249.83 660.8 245.5C659.57 238.32 667.85 236.41 673.24 238.32C675.34 239.06 676.97 240.94 678.5 242.47C680.52 241.15 682.54 239.82 684.56 238.5ZM756.26 237.5C749.52 227.78 730.32 226.26 725.33 238.78C720.51 250.88 730.52 256.64 739.79 260.68C743.83 262.44 749.97 264.21 750.26 269.5C750.92 281.24 733.68 278.8 728.5 270.18C726.3 271.62 724.11 273.06 721.91 274.5C729.6 288.8 758.18 289.55 758.8 270.5C759.14 260.35 751.2 256.76 743.11 253.43C739.5 251.94 733.5 250 732.76 245.5C731.57 238.28 739.92 236.46 745.29 238.27C747.47 239.01 748.99 240.83 750.5 242.45C752.42 240.8 754.34 239.15 756.26 237.5ZM505.97 230.98C505.97 248.65 505.97 266.32 505.97 283.99C508.76 283.99 511.55 283.99 514.34 283.99C514.34 277.83 514.34 271.66 514.34 265.5C520.9 265.26 528.44 266.38 534.33 262.85C544.62 256.66 544.98 240.14 534.82 233.66C527.02 228.68 514.78 230.64 505.97 230.98ZM345.6 238.22C371.32 231.83 378.6 271.31 355.4 276.78C330.5 282.65 323.39 243.74 345.6 238.22ZM514.34 257.58C514.34 251.22 514.34 244.86 514.34 238.5C518.72 238.06 524.13 237.36 528.31 239.19C534.7 241.97 535.96 251.64 530.32 255.86C525.98 259.12 519.35 258.28 514.34 257.58ZM221.09 262.73C221.89 263.16 222.7 263.6 223.5 264.03C218.5 265.46 213.5 266.9 208.5 268.34C206.9 274.39 205.29 280.45 203.69 286.5C202.21 280.5 200.73 274.5 199.25 268.5C194.02 266.83 188.8 265.17 183.57 263.5C184.68 263.04 185.79 262.58 186.9 262.11C191.1 260.95 195.3 259.79 199.5 258.62C200.83 252.71 202.17 246.79 203.5 240.88C205.17 246.9 206.83 252.93 208.5 258.96C212.7 260.22 216.89 261.47 221.09 262.73ZM593.5 248.07C596.24 254.62 598.98 261.18 601.72 267.74C596.24 267.74 590.76 267.74 585.27 267.74C588.02 261.18 590.76 254.62 593.5 248.07ZM1045.1 309.88C1046.52 310.42 1047.95 310.96 1049.37 311.5C1043.08 313.39 1036.79 315.29 1030.5 317.18C1028.83 324.28 1027.17 331.38 1025.5 338.47C1023.62 331.48 1021.74 324.49 1019.86 317.5C1013.53 315.5 1007.19 313.5 1000.86 311.5C1002.23 310.95 1003.59 310.4 1004.96 309.85C1010.03 308.4 1015.1 306.95 1020.17 305.5C1021.95 298.08 1023.72 290.66 1025.5 283.24C1027.17 290.76 1028.83 298.28 1030.5 305.79C1035.37 307.16 1040.23 308.52 1045.1 309.88ZM568.5 306.11C565.42 309.25 563.83 314.43 561.99 318.5C558.74 325.71 554.48 333.04 552.39 340.64C554.43 340.64 556.46 340.64 558.5 340.64C559.5 338.7 560.5 336.77 561.5 334.84C566.17 334.84 570.83 334.84 575.5 334.84C577.85 340.19 577.32 341.38 583.87 340.5C578.74 329.04 573.62 317.57 568.5 306.11ZM623.26 311.5C617.64 304.23 602.19 303.07 601.06 314.5C600.44 320.79 605.44 323.9 610.66 325.79C612.7 326.53 616.25 326.94 617.43 329.04C618.27 330.54 617.86 331.9 617.75 333.5C612.33 338.03 607.61 334.96 603.5 330.67C602.13 331.62 600.76 332.56 599.39 333.5C602.68 342.68 620.76 345.15 623.95 334.44C628.59 318.85 606.83 324.47 607.5 313.65C611.74 309.68 615.72 312.05 619.5 315.16C620.75 313.94 622.01 312.72 623.26 311.5ZM665.98 311.98C666.02 310.67 666.62 307.99 665.68 306.83C664.51 305.39 659.23 306.41 657.5 306.42C653.17 306.45 648.83 306.44 644.5 306.41C643.45 306.41 641.25 305.93 640.5 306.92C639.61 308.09 640.24 310.67 640.31 311.98C643.37 311.98 646.44 311.98 649.5 311.98C650.31 318.77 649.82 325.67 649.84 332.5C649.84 334.29 649.16 338.71 650.33 340.17C651.27 341.34 654.81 340.67 656.09 340.65C656.09 331.09 656.09 321.54 656.09 311.98C659.38 311.98 662.68 311.98 665.98 311.98ZM701.06 327.5C708.76 322.62 711.09 311.54 701.07 307.46C695.92 305.37 689.7 306.52 684.28 306.5C682.56 310.39 683.33 316.19 683.4 320.5C683.52 327.02 682.38 334.29 683.92 340.64C685.83 340.64 687.74 340.64 689.64 340.64C689.64 336.59 689.64 332.55 689.64 328.5C691.06 328.37 692.67 327.9 694.04 328.52C696.43 329.6 700.93 338.16 702.5 340.62C704.61 340.62 706.72 340.62 708.82 340.62C706.24 336.25 703.65 331.87 701.06 327.5ZM737.59 306.29C726.18 308.45 721.16 323.19 726.71 332.74C730.9 339.94 739.32 342.76 747.27 340.67C759.26 337.53 762.44 321.18 755.42 312.1C751.25 306.71 744.03 305.06 737.59 306.29ZM700.71 314.5C701.93 323.2 696.96 323.74 689.63 322.5C689.63 319.17 689.63 315.83 689.63 312.5C693.77 311.91 697.5 311.48 700.71 314.5ZM737.78 312.33C753.15 307.1 759.32 330.19 745.47 334.98C731.28 339.89 724.32 316.9 737.78 312.33ZM568.5 318.65C569.83 322.24 571.17 325.84 572.5 329.44C569.5 329.44 566.5 329.44 563.5 329.44C565.17 325.84 566.83 322.24 568.5 318.65ZM392.1 463.01C392.1 466.9 392.1 470.78 392.1 474.67C394.22 473.44 392.58 475.53 393.9 474.23C394.71 473.44 393.94 472 394.79 471.15C396.58 469.37 397.85 471.36 400.2 467.5C399.19 462.77 396.59 462.93 392.1 463.01ZM403.5 463.31C403.18 466.89 402.34 472.09 404.5 474.86C405.17 473.47 405.83 472.08 406.5 470.68C408.29 472.65 408.93 474.07 411.5 474.78C411.46 473.24 410.23 472.02 410.25 470.51C410.3 466.63 412.19 469.15 410.5 463.31C408.17 463.31 405.83 463.31 403.5 463.31ZM416.5 462.87C414.23 465.69 414.72 471 415.5 474.7C416.35 474.39 416.84 474.9 417.45 474C417.9 473.34 417.9 464.65 417.53 463.81C416.86 462.3 417.52 464.38 416.5 462.87ZM422.5 462.87C421.2 464.4 422.21 462 421.26 463.72C420.89 464.4 421.04 473.73 421.43 474.15C421.9 474.64 422.79 474.45 423.36 474.82C423.36 472.89 423.36 470.95 423.36 469.02C427.91 472.32 426.34 472.93 430.93 468.71C430.93 470.72 430.93 472.73 430.93 474.74C433.28 473.27 431.46 475.48 432.73 474.18C433.99 472.88 432.94 464.66 432.5 462.97C429.81 464.17 428.95 466.06 427.5 468.68C425.83 466.74 424.17 464.81 422.5 462.87ZM441.5 462.9C439.83 466.84 438.17 470.77 436.5 474.71C442.88 472.49 439.21 470.6 446.5 474.83C446.87 471.02 444.29 465.62 441.5 462.9ZM450.5 463.14C450.15 465.13 449.21 472.62 450.24 474.22C451.14 475.61 450.32 473.78 451.5 474.95C451.83 473.68 452.17 472.41 452.5 471.15C454.17 472.4 455.83 473.65 457.5 474.91C458.02 471.33 456.48 472.36 456.5 470.48C456.53 468.24 458.37 468.78 457.67 464.5C455.28 462.83 453.36 462.97 450.5 463.14ZM460.5 463.29C462.17 467.15 463.83 471.01 465.5 474.86C466.83 470.88 468.17 466.9 469.5 462.92C468.17 464.26 466.83 465.59 465.5 466.93C463.76 464.56 463.39 463.6 460.5 463.29ZM1003.5 462.9C1002.18 466.7 1002.11 471.01 1003.5 474.83C1004.58 473.76 1003.85 475.43 1004.66 474.18C1005.27 473.22 1005.29 464.75 1004.72 463.75C1003.79 462.11 1004.77 464.36 1003.5 462.9ZM1018.5 465.63C1016.38 460.27 1008.29 463.3 1008.04 468.51C1007.77 474.05 1015.4 477.44 1018.5 472.38C1016.36 471.21 1015.81 472.27 1013.34 472.5C1010.14 470.29 1009.66 468.19 1012.5 465.32C1015.09 465.38 1016.44 466.7 1018.5 465.63ZM1025.64 463.18C1018.13 464.94 1021.74 476.42 1029.23 474.63C1036.63 472.85 1033.21 461.41 1025.64 463.18ZM1037.5 462.87C1036.38 466.69 1036.22 471.13 1037.5 474.92C1039.69 472.78 1038.93 471.3 1039.5 468.21C1041.5 470.45 1043.5 472.69 1045.5 474.93C1046.95 471.15 1046.73 466.65 1045.5 462.83C1044.12 464.73 1044.13 466.86 1043.5 469.31C1041.5 467.16 1039.5 465.01 1037.5 462.87ZM394.5 467.93C394.51 467.12 394.52 466.31 394.53 465.5C395.51 465.55 397.47 464.84 397.53 466.63C397.6 468.57 395.54 467.83 394.5 467.93ZM408.95 467.5C407.8 467.51 406.65 467.53 405.5 467.54C405.52 466.86 405.54 466.18 405.56 465.5C408.31 465.33 408.1 464.98 408.95 467.5ZM452.5 465.39C455.08 465.48 454.96 465.08 455.64 467.5C454.59 467.62 453.55 467.74 452.5 467.86C452.5 467.04 452.5 466.21 452.5 465.39ZM1025.8 465.4C1030.4 463.54 1033.15 470.37 1028.7 472.26C1024.47 474.06 1021.84 467 1025.8 465.4ZM441.5 467.25C441.83 468.11 442.17 468.96 442.5 469.81C441.79 469.71 441.07 469.6 440.36 469.5C440.74 468.75 441.12 468 441.5 467.25ZM369.91 469.47C356.06 469.47 342.21 469.47 328.36 469.47C342.21 469.47 356.06 469.47 369.91 469.47ZM532.79 469.47C518.88 469.47 504.96 469.47 491.05 469.47C504.96 469.47 518.88 469.47 532.79 469.47ZM976.49 469.47C962.6 469.47 948.71 469.47 934.82 469.47C948.71 469.47 962.6 469.47 976.49 469.47ZM1113.83 469.47C1099.98 469.47 1086.14 469.47 1072.3 469.47C1086.14 469.47 1099.98 469.47 1113.83 469.47ZM265.5 525.62C263.21 530.34 264.08 530.99 258.61 532.5C264.59 536.35 262.4 533.68 265.5 540.4C267.25 534.58 267.28 535.52 272.05 532.5C267.43 531.23 266.71 530.22 265.5 525.62ZM260.74 542.5C251.57 542.3 241.86 546.64 234.77 552.3C228.12 557.6 223.18 564.67 220.18 572.6C210.58 597.99 225.73 629.25 252.58 635.78C269.49 639.89 287.38 635.69 299.5 623C302.93 619.42 306 615.46 307.03 610.67C304.52 610.67 302.01 610.67 299.5 610.67C297.59 612.43 295.96 615.35 293.98 617.48C288.86 622.98 281.7 627.13 274.31 628.66C243.26 635.08 216.56 605.21 227.62 575.15C233.48 559.2 245.58 553.73 260.74 549.5C260.74 547.17 260.74 544.83 260.74 542.5ZM305.22 561.5C297.04 550.53 283.89 541.99 269.78 542.5C269.78 544.83 269.78 547.17 269.78 549.5C282.27 551.74 288.52 555.63 297.5 564.23C300.44 563.68 303 563.26 305.22 561.5ZM960.6 542.3C941.21 545.2 925.21 559.81 919.98 578.52C917.28 588.18 918.16 598.59 918.17 608.5C918.18 623.83 918.14 639.17 918.15 654.5C918.16 668.17 918.17 681.83 918.15 695.5C918.14 709.63 918.09 723.87 926.57 735.91C943.45 759.88 964.15 757.7 990.5 757.75C1011.83 757.79 1033.17 757.76 1054.5 757.75C1072.03 757.75 1090.22 759.53 1105.33 748.86C1116.66 740.86 1124.23 728.27 1126 714.5C1127.89 699.84 1126.44 684.27 1126.44 669.5C1126.44 650.17 1126.6 630.84 1126.48 611.5C1126.32 587.13 1127.66 566.8 1105.53 550.97C1090.31 540.07 1072.28 541.76 1054.5 541.78C1034.17 541.8 1013.83 541.78 993.5 541.79C982.72 541.79 971.28 540.71 960.6 542.3ZM257.57 583.87C249.99 585.75 242.41 587.62 234.83 589.5C242.44 591.17 250.06 592.83 257.67 594.5C260.37 600.26 261.14 607.63 262.54 613.89C262.99 615.91 263.16 619.64 264.32 621.37C264.57 621.74 265.19 621.68 265.5 622C269.49 617.16 270.71 601.46 273.45 594.5C281.47 592.81 289.48 591.13 297.5 589.44C289.54 587.57 281.58 585.7 273.61 583.84C270.91 571.35 268.2 558.86 265.5 546.37C262.86 558.87 260.21 571.37 257.57 583.87ZM354.8 568.4C333.65 574.5 343.02 609.2 366.17 601.59C385.86 595.12 376.95 562.02 354.8 568.4ZM401.5 568.33C399.2 574.52 400.75 585.55 400.66 592.5C400.63 594.54 399.63 599.62 401.01 601.27C401.85 602.27 403.37 601.92 404.5 602.02C407.68 598.27 405.1 587.36 406.5 581.96C410.17 586.32 413.83 590.67 417.5 595.03C421.17 590.78 424.83 586.53 428.5 582.28C428.67 587.01 428.48 591.76 428.48 596.5C428.48 597.63 427.93 600.59 428.93 601.42C430.26 602.52 432.25 601.77 433.73 601.61C433.73 590.54 433.73 579.47 433.73 568.4C428.32 574.73 422.91 581.06 417.5 587.38C412.17 581.03 406.83 574.68 401.5 568.33ZM465.5 590.54C470.19 589.92 475.28 590.95 479.33 587.87C485.13 583.46 484.18 573.1 477.85 569.63C473.02 566.98 465.15 567.63 459.97 568.5C459.48 576.78 459.8 585.19 459.77 593.5C459.76 598.03 458.13 601.52 463.5 601.98C464.77 600.71 463.83 602.74 464.79 601.24C465.74 599.77 465.24 592.74 465.5 590.54ZM516.5 568.11C512.34 572.6 508.32 585.04 505.61 591.16C504.1 594.57 501.63 598.17 501.5 601.86C507.26 601.98 506.73 600.89 508.97 596.15C513.82 596.15 518.66 596.15 523.5 596.15C525.92 600.77 525.24 602.53 531.23 601.5C526.32 590.37 521.41 579.24 516.5 568.11ZM572.5 573.78C572.64 565.34 555.17 565.55 553.17 574.59C550.31 587.47 566.04 584.42 569.53 592.5C568.61 597.86 563.43 599.19 558.81 596.65C557.69 596.04 556.53 594.21 555.34 593.95C554.17 593.68 553.47 594.41 552.5 594.89C552.43 595.45 551.9 595.92 551.91 596.48C552 599.1 556.47 601.4 558.53 602.01C564.46 603.77 573.01 602.11 574.57 595.16C577.76 580.94 555.59 585.1 558.71 574.5C564.88 570.22 567.23 576.45 572.5 573.78ZM617.5 573.75C617.43 565.1 599.33 565.75 597.74 575.5C595.91 586.73 610.55 584.95 614.09 592.5C612.99 597.52 608.47 599.35 603.76 596.75C602.57 596.09 600.85 593.52 599.53 593.53C598.68 593.53 597.18 595.05 596.52 595.5C599.84 604.51 616.26 605.72 619.06 595.47C623.04 580.95 600.67 585.33 603.6 574.5C610.66 569.42 611.73 577.04 617.5 573.75ZM355.78 573.34C372.6 568 378.04 593.51 362.78 597.37C348.23 601.05 342.31 577.61 355.78 573.34ZM465.19 573.12C468.38 572.95 472.5 572.25 475.36 574.12C478.93 576.45 478.68 582.33 475.14 584.6C472.25 586.45 468.4 585.85 465.19 585.64C465.19 581.47 465.19 577.29 465.19 573.12ZM273.14 587.88C273.68 589.32 273.78 588.63 272.5 589.76C270.9 590.34 269.29 590.92 267.69 591.5C266.97 594.17 266.24 596.83 265.52 599.5C264.76 596.83 263.99 594.17 263.22 591.5C261.64 590.89 260.07 590.29 258.5 589.68C257.38 588.67 257.46 589.29 257.91 587.93C259.77 587.47 261.64 587.02 263.5 586.57C264.17 583.67 264.83 580.77 265.5 577.87C266.18 580.74 266.87 583.62 267.55 586.5C269.41 586.96 271.28 587.42 273.14 587.88ZM516.5 579.56C517.99 583.58 519.49 587.6 520.98 591.61C517.73 591.61 514.48 591.61 511.24 591.61C512.99 587.6 514.75 583.58 516.5 579.56ZM1076.94 620.5C1073.46 621.38 1069.98 622.25 1066.5 623.13C1060.82 617.47 1055.64 611.82 1048.25 608.27C1042.32 605.42 1035.83 604.95 1029.9 602.51C1029.9 599.66 1029.9 596.82 1029.9 593.97C1033.22 592.65 1039.92 594.73 1043.56 595.84C1057.43 600.05 1068.3 609.17 1076.94 620.5ZM1016.77 593.55C1016.77 596.53 1016.77 599.52 1016.77 602.5C1012.59 604.27 1007.93 604.53 1003.63 606.16C993.5 610.02 985.11 616.53 978.7 625.23C953.4 659.54 979.55 709.68 1021.5 710.67C1043.41 711.19 1057.83 701.32 1069.5 683.88C1072.89 684.75 1076.28 685.63 1079.67 686.5C1074.84 695.4 1068.63 702.92 1060.42 708.93C1053.55 713.96 1045.7 716.96 1037.51 719.03C1029.98 720.93 1022.17 721.22 1014.5 720.09C967.19 713.12 944.27 661.4 969.54 621.06C973.8 614.27 979.79 608.44 986.4 603.94C995.62 597.67 1005.81 594.8 1016.77 593.55ZM511.5 615.18C508.83 621.41 506.17 627.64 503.5 633.87C507.94 633.56 507.92 629.87 513.5 630.84C516.44 631.34 516.04 633.43 519.5 634.12C519.56 629.9 514.14 618.93 511.5 615.18ZM541.54 619.5C541.57 618.85 542.08 618.24 541.99 617.59C541.72 615.42 538.07 614.98 536.5 615.02C532.31 615.12 530.64 617.69 530.34 621.5C532.83 625.58 538.23 625.34 539.93 629.5C536.07 632.97 534.17 628.98 530.26 629.5C531.21 636.97 543.7 636.81 542.96 626.5C540.13 623.34 535.4 623.36 533.95 619.5C537.11 617.01 538.34 619.34 541.54 619.5ZM567.52 616.5C566 615 555.92 614.35 553.76 615.39C552.09 616.19 554.45 615.33 552.86 616.5C554.31 617.92 551.97 616.84 553.69 617.92C554.97 618.72 556.88 617.47 557.97 618.75C560.14 621.28 557.08 630.44 559.5 634.14C560.42 633.79 561.1 634.26 561.74 633.28C562.64 631.93 562.02 621.05 562.32 618.5C564.76 618.27 566.12 618.44 567.52 616.5ZM587.83 627.5C588.7 626.27 590.35 624.81 590.76 623.32C593.02 615.1 583.45 614.7 578.12 615.5C577.89 618.5 576.78 631.2 578.11 633.31C579.24 635.09 578.03 632.65 579.5 634.17C582.69 630.94 579.94 630.23 582.5 627.14C586.6 629.75 585.92 634.03 591.5 633.51C590.28 631.51 589.06 629.5 587.83 627.5ZM607.74 615.33C596.44 618.19 600.42 637.59 613.44 633.9C624.25 630.84 620.19 612.19 607.74 615.33ZM581.27 618.27C584.73 618.24 586.43 618.13 587.75 621.5C585.99 624.32 584.45 624.16 581.27 624.03C581.27 622.11 581.27 620.19 581.27 618.27ZM608.73 618.32C616.35 616.55 619.93 628.95 612.4 630.83C604.18 632.89 600.86 620.14 608.73 618.32ZM511.5 622.11C512.33 624.03 513.16 625.96 513.99 627.88C512.49 627.88 511 627.88 509.5 627.88C510.17 625.96 510.83 624.03 511.5 622.11ZM382.5 650.46C383.26 654.2 384.1 658.39 386.5 661.26C387.5 659.26 388.5 657.26 389.5 655.25C390.5 657.24 391.5 659.23 392.5 661.21C394.93 658.44 396.66 653.67 396.5 649.95C394.12 651.46 393.94 653.49 392.5 655.96C391.5 653.93 390.5 651.9 389.5 649.87C388.5 651.87 387.5 653.87 386.5 655.87C385.32 652.52 385.93 651.01 382.5 650.46ZM402.5 650.06C396.23 654.63 399.66 663.63 407.28 660.78C413.05 658.63 411.74 649.47 402.5 650.06ZM413.5 650.3C413.3 653.99 412.59 658.32 414.5 661.31C415.17 659.98 415.83 658.66 416.5 657.33C418.76 659.87 418 660.45 421.5 660.66C419.26 655.54 421.42 656.64 420.83 651.5C418.4 649.56 416.49 649.86 413.5 650.3ZM434.2 657.5C434.31 651.12 430.83 649.19 424.83 650.5C424.83 654.09 424.83 657.68 424.83 661.28C429.16 661.16 431.72 661.23 434.2 657.5ZM438.5 649.84C437.28 651.38 438.17 649.07 437.31 650.74C436.97 651.4 436.96 659.82 437.33 660.28C437.79 660.87 438.76 660.82 439.33 661.3C439.33 659.48 439.33 657.65 439.33 655.82C443.9 659.38 441.78 659.04 446.5 656.02C446.28 658.39 446.29 659.41 447.5 661.28C449.21 658.35 449.37 652.68 447.5 649.85C446.17 651.68 444.83 653.52 443.5 655.35C441.83 653.51 440.17 651.68 438.5 649.84ZM456.5 649.88C454.85 653.42 453.2 656.96 451.55 660.5C457.7 659.9 454.21 657.8 461.5 661.14C461.55 657.57 459.3 652.18 456.5 649.88ZM465.5 650C464.5 653.76 464.46 657.61 465.5 661.33C466.31 660.05 467.11 658.78 467.92 657.5C469.82 659.7 470.1 660.89 472.95 660.5C470.54 656.48 472.32 656.65 472.71 652.5C470.62 649.85 468.78 649.95 465.5 650ZM476.13 650.02C476.13 653.72 476.13 657.41 476.13 661.11C477.25 659.79 478.38 658.46 479.5 657.13C481.09 659.54 481.72 660.4 484.5 660.89C483.34 659.09 482.18 657.3 481.02 655.5C482.13 653.83 483.25 652.17 484.37 650.5C481.38 650.37 480.9 651.44 478.66 653.5C477.86 650.32 478.55 651.68 476.13 650.02ZM1012.77 649.94C1012.49 651.97 1012.22 653.99 1011.95 656.01C1013.87 658.14 1017.36 658.43 1020.23 659.5C1021.32 662.67 1022.41 665.83 1023.5 669C1024.5 665.83 1025.5 662.65 1026.5 659.48C1027.67 659.07 1035.26 657.07 1035.54 656.5C1035.65 656.27 1035.05 655.98 1035.05 655.94C1034.82 653.93 1034.59 651.92 1034.36 649.9C1044.84 652.1 1055.33 654.3 1065.81 656.5C1055.04 659.02 1044.27 661.54 1033.5 664.06C1030.17 677.59 1026.83 691.12 1023.5 704.65C1020.17 691.14 1016.83 677.63 1013.5 664.13C1003.88 661.92 994.27 659.71 984.65 657.5C987.72 655.39 992.61 655.06 996.5 654.06C1001.88 652.67 1007.26 650.65 1012.77 649.94ZM403.5 658.88C400.39 655.99 401.28 650.51 406.21 652.39C410.23 653.93 408.14 658.49 403.5 658.88ZM416.5 652.14C418.48 652.95 418.04 652.54 418.65 654.5C417.93 654.67 417.22 654.84 416.5 655.02C415.46 653.43 415.39 653.69 416.5 652.14ZM427.14 652.14C433.67 652.95 433.59 658.01 427.14 658.89C427.14 656.64 427.14 654.39 427.14 652.14ZM467.5 652.12C468.51 652.58 469.51 653.04 470.52 653.5C469.51 654 468.51 654.51 467.5 655.01C467.5 654.05 467.5 653.09 467.5 652.12ZM456.5 654.28C457.84 656.11 457.87 656.22 455.83 656.5C456.05 655.76 456.28 655.02 456.5 654.28ZM367.56 655.58C353.74 655.58 339.91 655.58 326.09 655.58C339.91 655.58 353.74 655.58 367.56 655.58ZM540.81 655.58C527.02 655.58 513.23 655.58 499.44 655.58C513.23 655.58 527.02 655.58 540.81 655.58ZM271.5 695.31C266.19 692.84 267.49 693.65 265.39 688.5C262.6 693.52 263.9 692.4 259.04 695.5C264.48 697 262.73 697.98 265.5 701.93C266.81 696.19 266.89 697.52 271.5 695.31ZM260.32 704.95C251.16 704.93 242.02 708.71 234.87 714.4C228.32 719.61 223.18 726.83 220.2 734.65C209.67 762.34 227.96 793.32 256.67 798.66C274.15 801.92 302.62 792.07 306.94 772.72C304.46 772.72 301.98 772.72 299.5 772.72C297.32 774.29 295.64 777.74 293.41 779.93C285.95 787.28 276.01 791.48 265.5 791.6C236.41 791.9 215.98 759.71 229.1 733.59C235.49 720.88 246.81 714.63 260.32 712.09C260.32 709.71 260.32 707.33 260.32 704.95ZM269.73 705.06C269.73 707.37 269.73 709.68 269.73 711.98C281.01 713.66 288.59 718.32 296.5 726.24C299.14 725.66 301.78 725.08 304.42 724.5C297.89 713.04 282.98 704.32 269.73 705.06ZM265.5 709.13C262.83 721.21 260.17 733.29 257.5 745.37C249.89 747.41 242.28 749.46 234.66 751.5C242.41 753.17 250.16 754.83 257.9 756.5C260.43 766.6 262.97 776.7 265.5 786.79C267.95 776.7 270.4 766.6 272.85 756.5C280.79 754.83 288.74 753.17 296.69 751.5C288.85 749.5 281.01 747.5 273.17 745.5C270.61 733.38 268.06 721.25 265.5 709.13ZM357.69 732.39C336.24 735.27 339.18 768.98 361.5 766.99C384.64 764.93 380.29 729.35 357.69 732.39ZM572.96 737.5C568.34 730.94 555.02 729.74 553.1 739.55C550.65 752.06 566.26 749.12 569.38 757.5C567.12 764.5 559.32 763.18 555.5 758.04C554.14 758.86 552.78 759.68 551.43 760.5C556.88 769.19 572.87 769.8 574.68 759.31C576.81 746.9 559.43 750.08 558.16 740.5C562.76 733.06 566.16 739.39 569.59 739.71C571.02 739.84 572.08 738.34 572.96 737.5ZM617.9 737.5C612.99 730.48 598.81 730.02 597.7 740.5C596.48 752.13 612.68 749.14 614.05 758.5C608.58 768.51 602.69 757.74 598.5 758.79C595.39 762.33 598.86 764.73 602.5 766.07C607.89 768.06 616.32 767.37 618.58 761.13C623.8 746.73 604.47 750.37 603.11 740.5C608.52 731.24 611.91 743.49 617.9 737.5ZM401.5 732.96C399.13 740.5 400.62 750.51 400.66 758.5C400.67 762.54 399.59 766.19 404.5 766.58C407.37 763.5 405.46 751.59 406.5 746.78C410.17 751.12 413.83 755.46 417.5 759.8C421.17 755.41 424.83 751.01 428.5 746.61C428.56 751.39 428.5 756.16 428.5 760.93C428.5 762.17 428.02 764.72 428.79 765.76C429.6 766.86 431.31 766.55 432.5 766.62C434.52 764.28 433.72 760.57 433.72 757.5C433.73 749.42 434.19 741.21 433.5 733.16C428.17 739.46 422.83 745.76 417.5 752.06C412.17 745.69 406.83 739.33 401.5 732.96ZM460.5 732.77C458.58 740.36 459.82 749.59 459.8 757.5C459.8 759.45 458.88 764.78 460.66 766.06C461.8 766.88 461.25 765.89 462.5 766.4C463.62 765.88 463.29 766.75 464.28 765.97C465.46 765.06 465.15 756.96 465.5 754.96C470.02 754.72 475.15 755.37 479.08 752.56C484.84 748.45 484.32 738.77 478.64 734.89C473.67 731.51 466.2 732.68 460.5 732.77ZM516.5 732.76C511.5 743.9 506.5 755.03 501.5 766.16C506.32 766.5 507.2 765.3 508.64 760.92C513.59 760.92 518.55 760.92 523.5 760.92C525.42 764.81 525.83 766.3 530.5 766.4C530.4 761.94 527.45 757.08 525.57 752.91C522.54 746.19 519.74 739.38 516.5 732.76ZM357.69 737.36C373.58 734.54 377 760.41 361.5 762.3C346.38 764.15 343.17 739.93 357.69 737.36ZM465.15 737.78C468.58 737.56 473.39 736.7 476.17 739.34C479.16 742.17 478.18 748.19 474.24 749.67C471.42 750.73 468.07 750.23 465.15 750.05C465.15 745.96 465.15 741.87 465.15 737.78ZM267.5 748.86C269.57 749.74 271.63 750.62 273.7 751.5C271.63 752.04 269.57 752.59 267.5 753.13C266.83 755.75 266.17 758.36 265.5 760.98C264.72 758.49 263.93 755.99 263.15 753.5C261.06 752.83 258.98 752.17 256.89 751.5C258.98 750.5 261.06 749.5 263.15 748.5C263.93 745.83 264.7 743.17 265.48 740.5C266.15 743.29 266.83 746.07 267.5 748.86ZM516.5 744.05C518.32 748.07 520.67 752.23 520.68 756.53C517.59 756.53 514.5 756.53 511.41 756.53C513.11 752.37 514.8 748.21 516.5 744.05ZM513.5 779.29C510.61 783.84 506.16 791.72 506.5 796.95C510.01 795.76 511.56 792.33 516.45 793.98C519.39 794.97 517.29 796.48 521.5 796.64C518.83 790.86 516.17 785.07 513.5 779.29ZM542.81 782.5C541.02 777.53 534.74 778.2 532.21 782.5C532.56 790.38 538.38 787.15 541 792.5C536.54 796.9 535.56 791.19 531.5 793.46C534.09 799.07 541.02 797.9 544.03 793.5C543.65 786.15 539.68 788.17 535.09 784.5C536.84 779.01 539.03 782.92 542.81 782.5ZM559.24 789C559.24 791 559.24 793 559.24 795C559.85 796.89 559.53 796.31 561.5 796.89C561.77 792.09 562.03 787.3 562.3 782.5C564.09 781.83 565.88 781.17 567.67 780.5C565.98 778.93 557.06 778.25 554.77 779.38C553.13 780.19 555.43 779.32 553.88 780.5C555.84 782.01 557.2 781.29 558.31 782.14C559.81 783.29 559.14 787.25 559.24 789ZM587.61 790.5C595.44 781.33 587.38 778.47 578.69 779.5C577.81 783.99 576.88 793.48 579.5 797.02C582.87 794.02 580.11 793.48 582.5 790.27C586.05 791.92 586.45 796 590.5 796.94C590.51 794.45 589.07 792.76 587.61 790.5ZM607.73 779.31C597.24 781.91 600.9 800.26 613.4 796.82C623.77 793.96 620.16 776.23 607.73 779.31ZM581.53 782.11C583.18 782.11 584.84 782.11 586.5 782.11C586.83 783.29 587.17 784.48 587.5 785.66C585.39 787.58 584.42 787.59 581.53 787.5C581.53 785.7 581.53 783.9 581.53 782.11ZM607.8 782.36C615.24 779.02 620.32 790.85 613.27 793.74C605.73 796.83 600.74 785.52 607.8 782.36ZM513.5 785.8C514.3 787.47 515.09 789.15 515.89 790.83C514.39 790.83 512.9 790.83 511.4 790.83C512.1 789.15 512.8 787.47 513.5 785.8ZM371.5 813.77C369.49 816.49 369.46 822.27 371.5 825.04C372.17 823.34 372.83 821.64 373.5 819.93C375.82 823.28 376.43 822.65 378.5 819.48C379.17 821.34 379.83 823.21 380.5 825.07C382.46 822.32 382.34 816.84 380.5 813.92C379.17 815.67 377.83 817.42 376.5 819.17C374.83 817.37 373.17 815.57 371.5 813.77ZM387.75 814.24C380.77 816.93 385.81 827.78 392.82 824.36C399.35 821.19 394.33 811.71 387.75 814.24ZM399.5 813.83C397.67 817.01 398.29 821.75 399.5 825.03C401.03 823.28 400.89 821.5 401.5 819.12C403.48 821.52 404.57 823.85 407.5 824.79C407.77 823.28 408.53 815.83 407.68 814.75C407.24 814.2 406.32 814.29 405.78 813.85C405.78 815.87 405.78 817.9 405.78 819.93C403.69 817.89 401.59 815.86 399.5 813.83ZM422.19 819.5C420.7 814.2 416.88 812.52 412.02 815.5C407.42 825 419.35 829.19 422.19 819.5ZM434.15 816.5C431.2 812.42 424.2 813.57 424.24 819.5C424.27 825.49 431.19 826.24 434.36 822.5C431.83 822.27 429.93 822.89 427.5 821.68C425.51 814.58 429.94 816.61 434.15 816.5ZM438.5 813.76C436.87 816.62 436.73 822.36 438.5 825.05C440.09 822.76 439.37 821.05 442.5 820.41C444.08 821.67 444.14 823.45 445.5 825.08C446.87 821.59 447.28 817.14 445.5 813.74C443.6 816.28 444.66 817 441.5 818.22C439.48 816.25 440 816.07 438.5 813.76ZM450.01 814.03C450.01 817.68 450.01 821.33 450.01 824.99C451.17 823.78 452.34 822.57 453.5 821.37C454.78 823.31 455.41 824.08 457.5 824.92C457.47 823.5 456.58 822.63 456.47 821.29C456.37 820.08 457.76 817.88 457.98 816.5C455.64 813.64 453.6 813.84 450.01 814.03ZM460.74 817.5C460.7 819.7 460.46 821.62 462.12 823.36C464.83 826.2 470.56 825.22 471.62 821.22C473.58 813.84 464.63 811.21 460.74 817.5ZM475.5 813.84C474.46 817.54 474.32 821.41 475.5 825.05C477.43 823.01 476.84 822.34 477.5 819.47C480.92 824.27 480.35 822.36 483.84 819.2C483.84 821.15 483.84 823.1 483.84 825.05C484.41 824.64 485.35 824.81 485.82 824.27C486.9 823.04 485.88 815.52 485.5 813.92C482.98 815.16 482.09 816.92 480.5 819.3C478.83 817.48 477.17 815.66 475.5 813.84ZM496.29 814.5C494.63 814.11 491.44 812.96 489.82 814.28C488.97 814.97 489.01 823.99 489.84 824.63C491.36 825.81 494.66 824.79 496.27 824.5C494.72 823.5 493.17 822.5 491.62 821.5C493.01 820.83 494.41 820.17 495.8 819.5C494.42 818.83 493.04 818.17 491.65 817.5C493.2 816.5 494.74 815.5 496.29 814.5ZM989.5 813.74C986.89 816.19 984.57 821.14 984.5 824.79C985.61 824.34 986.57 823.36 987.64 822.98C990.53 821.95 990.69 824.05 992.75 824.68C994.38 825.19 992.6 824.31 994.43 824.5C992.79 820.91 991.14 817.33 989.5 813.74ZM997.27 814.26C997.27 817.8 997.27 821.33 997.27 824.87C999.36 823.41 997.57 825.88 999 824.29C999.74 823.46 998.92 822.14 999.83 821.38C1003.08 818.68 1005.12 823.29 1004.78 815.5C1002.17 813.62 1000.38 813.78 997.27 814.26ZM1015.21 815.5C1012.57 813.7 1010.9 813.75 1007.87 814.5C1007.87 818 1007.87 821.5 1007.87 825C1008.26 824.73 1008.84 824.92 1009.29 824.75C1010.57 824.26 1009.69 822.56 1010.33 821.78C1011.1 820.85 1013.34 820.73 1014.5 820.33C1015.56 818.36 1015.71 817.7 1015.21 815.5ZM1026.01 813.82C1025.49 814.25 1024.58 814.14 1024.16 814.67C1023.77 815.16 1023.86 823.78 1024.24 824.25C1024.65 824.74 1025.51 824.59 1026.01 824.98C1026.01 821.26 1026.01 817.54 1026.01 813.82ZM1039.04 816.46C1036.09 812.34 1029.01 813.64 1029.1 819.5C1029.19 825.5 1036.09 826.36 1039.28 822.5C1037.05 821.09 1035.31 822.98 1032.5 821.93C1031.78 819.63 1031.91 818.81 1032.5 816.46C1034.68 816.46 1036.86 816.46 1039.04 816.46ZM1049.5 813.97C1043.78 813.65 1041.74 815.84 1042.01 821.5C1045.07 826.02 1049.68 825.85 1052.84 821.5C1053.05 817.75 1052.75 816.01 1049.5 813.97ZM1056.5 813.74C1056.1 815.39 1055.02 823 1056.17 824.29C1056.63 824.8 1057.55 824.6 1058.12 825C1058.12 822.96 1058.12 820.93 1058.12 818.89C1060.24 820.9 1062.37 822.92 1064.5 824.93C1064.97 823.24 1066.02 816.12 1064.83 814.7C1064.39 814.19 1063.5 814.35 1062.96 813.94C1062.96 815.97 1062.96 817.99 1062.96 820.02C1060.81 817.93 1058.65 815.83 1056.5 813.74ZM391.92 816.46C392.37 817.81 392.82 819.15 393.27 820.5C389 825.71 386.77 821.3 387.5 816.46C388.97 816.46 390.45 816.46 391.92 816.46ZM417.5 816.07C420.39 818.94 419.74 824.5 414.87 822.53C410.84 820.91 412.97 816.49 417.5 816.07ZM452.5 816.26C453.53 816.67 454.56 817.09 455.58 817.5C454.56 817.86 453.53 818.22 452.5 818.58C452.5 817.81 452.5 817.03 452.5 816.26ZM467.5 816.17C470.73 819.24 469.6 821.8 465.5 822.86C464.68 822.08 463.86 821.29 463.04 820.5C463.48 816.99 463.96 816.42 467.5 816.17ZM999.5 816.34C1001.4 816.5 1001.33 816.16 1002.67 817.5C1001.32 818.81 1001.49 818.46 999.58 818.5C999.56 817.78 999.53 817.06 999.5 816.34ZM1010.5 816.23C1011.32 816.32 1012.13 816.41 1012.95 816.5C1012.18 818.7 1012.81 818.16 1010.5 818.65C1010.5 817.84 1010.5 817.03 1010.5 816.23ZM1048.5 816.01C1051.99 819.06 1050.87 821.99 1046.5 822.86C1042.65 819.52 1043.62 816.7 1048.5 816.01ZM352.77 820.09C339.27 820.09 325.77 820.09 312.27 820.09C325.77 820.09 339.27 820.09 352.77 820.09ZM554.5 819.95C541.11 819.95 527.73 819.95 514.34 819.95C527.73 819.95 541.11 819.95 554.5 819.95ZM961.95 819.69C948.38 819.69 934.82 819.69 921.25 819.69C934.82 819.69 948.38 819.69 961.95 819.69ZM1126.67 819.68C1113.16 819.68 1099.66 819.68 1086.16 819.68C1099.66 819.68 1113.16 819.68 1126.67 819.68ZM502.55 882.5C501.66 885.83 500.77 889.17 499.88 892.5C496.31 893.83 492.75 895.17 489.18 896.5C492.04 897.34 497.41 897.63 499.46 900.02C501.57 902.48 501.58 907.79 502.5 910.84C503.83 907.12 505.17 903.39 506.5 899.67C509.77 898.61 513.04 897.56 516.31 896.5C512.78 895.17 509.24 893.83 505.71 892.5C504.66 889.17 503.6 885.83 502.55 882.5ZM539.5 889.45C537.71 893.96 538.18 900.94 539.5 905.52C541.32 903.49 539.56 906.76 541.02 904.42C542.24 902.47 541.51 898.12 541.5 895.81C544.5 899.07 547.5 902.33 550.5 905.6C550.82 905.12 551.49 904.91 551.73 904.39C552.27 903.23 552.27 891.8 551.73 890.65C551.49 890.16 550.82 890 550.5 889.55C548.65 892.35 549.24 896.02 548.5 899.49C546.14 896.26 543.2 890.89 539.5 889.45ZM718.1 890.5C717.52 890.41 714.46 889.17 715.29 891.41C716.23 893.96 717.6 891.07 718.1 890.5ZM612.5 891.07C611.31 892.55 610.13 894.02 608.94 895.5C612.38 899.81 608.48 905.18 615.5 905.57C615.71 904.67 616.21 905.71 616.1 904.5C615.95 902.81 611.53 901.65 613.53 897.83C613.9 897.14 615.88 896.01 616.53 895.5C613.98 894.3 613.62 893.54 612.5 891.07ZM562.5 894.99C559.88 894.19 558.5 894.35 556.02 895.5C557.28 896.86 554.97 896.01 556.64 896.99C557.65 897.58 560.24 897.1 561.56 897.5C559.1 899.89 549.94 899.77 557.5 905.77C557.74 901.93 556.98 900.13 561.83 901.5C560.55 903.19 560 903.79 559.5 905.7C560.17 905.6 562.91 905.45 563.38 905.09C565.94 903.16 564 896.99 562.5 894.99ZM588.5 894.81C584.85 895.79 582.17 901.39 586.17 904.34C588.25 905.88 590.89 904.75 592.5 905.83C590.29 908.78 588.56 907.14 585.5 907.68C586.68 912.5 591.89 910.24 595.15 908.5C595.15 903.94 595.15 899.37 595.15 894.81C592.93 894.81 590.72 894.81 588.5 894.81ZM599.28 904.82C600.58 904.91 601.88 905 603.18 905.1C604.29 905.25 605.39 905.41 606.5 905.57C607.56 902.16 607.68 898.22 605.5 895.24C602.35 894.15 601.01 894.38 598.53 896.5C600.49 896.83 602.45 897.17 604.42 897.5C602.06 899.06 599.65 899.08 597.68 901.5C598.21 902.61 598.75 903.72 599.28 904.82ZM622.05 905.13C624.23 905.91 626.5 905.64 627.5 903.31C626.01 903.51 624.53 903.7 623.04 903.9C622.3 903.1 621.56 902.3 620.82 901.5C623.84 900.74 625.94 901.16 628.36 899.5C625.54 890.45 615.48 894.8 618.78 903.5C619.87 904.04 620.96 904.59 622.05 905.13ZM652.63 894.37C645.03 895.14 646.45 906.81 654.24 905.59C661.58 904.43 659.83 893.65 652.63 894.37ZM680.5 895C678.47 895 676.44 895 674.4 895C674.57 898.61 673.94 902.42 675.5 905.49C677.98 902.19 676.06 901.95 677.32 898.75C678.5 895.75 680.07 898.84 680.5 895ZM710.5 894.71C707.83 894.71 705.17 894.71 702.5 894.71C701.68 898.75 701.09 902.3 703.5 905.54C705.37 902.32 703.73 898.72 707.5 896.87C709.92 899.39 708.78 902.64 710.5 905.55C713.04 902.25 712.76 898.45 710.5 894.71ZM735.81 905.14C738.37 905.94 740.81 905.78 741.5 903.02C740.03 903.3 738.56 903.58 737.09 903.86C736.44 903.07 735.79 902.29 735.14 901.5C737.26 901.33 739.38 901.16 741.5 900.99C741.68 900.64 741.86 900.28 742.04 899.93C741.9 896.78 741.27 895.57 738.14 894.86C731.91 893.12 729.74 903.06 735.81 905.14ZM751.5 894.73C749.5 894.73 747.5 894.73 745.5 894.73C744.78 898.03 743.74 903.26 746.5 905.54C748.29 903.39 746.96 901.08 748.07 898.62C749.16 896.21 750.81 897.93 751.5 894.73ZM759.99 895.5C756.69 894.12 754.7 894.18 752.95 897.5C754.43 900.77 756.9 900.3 757.61 903.34C756.04 903.34 754.46 903.34 752.89 903.34C755.47 906.24 757.97 906.25 760.91 903.5C760.29 899.88 758.39 899.64 755.75 897.5C758.47 896.92 758.35 897.04 759.99 895.5ZM768.5 894.35C766.83 895.15 765.17 895.96 763.5 896.77C761.9 902.4 763.46 907.66 770 904.5C768.5 903.33 767 902.16 765.5 900.99C767.92 900.99 770.35 900.99 772.77 900.99C772.58 897.33 772.07 895.74 768.5 894.35ZM566.5 894.67C566.68 898.46 568.9 902.82 571.5 905.62C574.11 902.83 576.39 898.47 576.5 894.7C573.55 896 573.15 898.22 571.5 901.03C569.63 897.73 570.2 896.09 566.5 894.67ZM580.5 894.57C578.41 897.56 578.43 902.43 580.5 905.46C582.53 902.44 582.53 897.59 580.5 894.57ZM636.5 894.59C636.42 898.25 639.43 901.05 639.61 904.68C639.75 907.54 636.89 906.92 636.18 908.71C635.62 910.12 636.64 908.79 636.5 910.3C637.87 910.08 638.7 910.29 639.91 909.41C641.26 908.44 645.96 898.17 645.98 896.47C645.99 895.84 645.56 895.27 645.5 894.64C644.17 896.75 642.83 898.87 641.5 900.98C639.48 898.68 639.26 896.15 636.5 894.59ZM662.5 894.61C660.63 897.47 660.63 901.62 662.5 904.79C665.12 905.97 669.12 905.97 671.5 904.58C671.48 902.27 672.36 897.53 671.09 895.6C669.69 893.47 671.24 896.37 669.5 894.57C668.74 897.74 669.63 901.82 666.33 903.5C662.17 900.77 665.36 898.38 662.5 894.61ZM690.5 894.62C690.14 895.05 689.41 895.12 689.13 895.61C687.64 898.28 689.04 903.1 690.5 905.38C693.17 905.38 695.83 905.38 698.5 905.38C698.97 901.64 699.54 897.55 697.5 894.61C695.03 898.24 697.85 901.3 693.5 903.56C690.89 901.38 691.51 897.7 690.5 894.62ZM716.5 894.68C714.54 897.62 714.64 902.51 716.5 905.5C716.82 905.04 717.51 904.89 717.76 904.39C718.48 902.92 718.56 897.1 717.79 895.65C717.53 895.18 716.84 895.1 716.5 894.68ZM730.5 894.71C727.71 896.1 727.29 898.52 725.5 901.13C724.83 899.66 724.17 898.19 723.5 896.72C722.5 897.73 722.53 896.46 721.83 897.7C720.74 899.63 724.09 904.7 725.65 905.5C728.5 902.93 730.29 898.48 730.5 894.71ZM591.5 897.22C592.99 899.96 592.69 901.09 590.5 903.21C585.41 901.57 585.91 897.11 591.5 897.22ZM625.5 898.71C624 898.71 622.49 898.71 620.99 898.71C622.45 896.97 624.43 895.16 625.5 898.71ZM652.5 896.86C656.96 897.88 657.77 901.23 653.5 903.58C649.79 902.17 649.43 899.24 652.5 896.86ZM739.13 896.96C739.38 897.61 739.62 898.25 739.86 898.89C738.31 898.76 736.77 898.63 735.23 898.5C736.6 896.87 736.76 896.94 739.13 896.96ZM770.07 898.7C768.49 898.7 766.92 898.7 765.34 898.7C767.57 895.88 768.02 896.34 770.07 898.7ZM602.91 903.94C601.99 903.53 601.07 903.12 600.16 902.72C600.36 902.31 600.57 901.91 600.77 901.5C601.99 901.5 603.22 901.5 604.44 901.5C603.93 902.31 603.42 903.12 602.91 903.94Z" fill="#fefbf9" fill-rule="evenodd" stroke="#fefbf9" stroke-width="0.25" stroke-linejoin="round"/>
<path d="M195.22 166.5C194.41 171.83 193.59 177.17 192.78 182.5C177.81 185.08 163.89 189.78 151.82 199.35C141.32 207.69 132.53 218.57 127.55 231.08C113.66 265.95 122.4 304.76 151.62 328.91C188.58 359.44 250.3 352.11 273.5 308.07C279.03 309.22 284.55 310.36 290.08 311.5C282.83 328.58 268.54 342.01 252.75 351.28C238.54 359.63 221.93 363.78 205.5 364.08C149.98 365.1 104.97 319.55 104.39 264.5C103.99 226.12 126.71 190.84 161.29 174.76C171.36 170.07 184.02 165.7 195.22 166.5ZM212.5 166.2C239.68 166.81 273.23 184.18 286.73 208.5C280.98 209.85 275.24 211.21 269.5 212.56C251.56 193.06 240.45 187.36 214.5 182.04C213.83 176.76 213.17 171.48 212.5 166.2ZM1127.01 244.5C1121.06 247.47 1112.16 248.95 1105.5 249C1093.58 234.95 1079.9 223.58 1062.32 217.26C1054.39 214.41 1046.32 213.43 1038.21 211.5C1037.31 205.39 1036.4 199.29 1035.5 193.18C1040.56 190.92 1053.85 194.51 1059.54 195.83C1087.62 202.37 1111.05 221.01 1127.01 244.5ZM924.11 304.86C923.91 304.13 923.7 303.39 923.5 302.66C923.49 304.27 923.48 305.89 923.47 307.5C923.64 307.64 923.82 307.78 923.99 307.92C923.99 309.64 923.99 311.35 924 313.07C923.82 313.21 923.65 313.36 923.47 313.5C923.48 315.19 923.49 316.88 923.5 318.57C923.71 318.06 923.91 317.55 924.12 317.04C925.98 322.22 925.92 328.72 927.34 334.25C930.69 347.29 936.78 359.74 945.13 370.32C977.96 411.93 1034.66 423.34 1079.96 394.46C1088.54 388.99 1096.16 381.92 1102.5 373.99C1105.44 370.3 1107.45 365.82 1110.5 362.31C1116.87 363.71 1123.24 365.1 1129.61 366.5C1128.24 374.68 1120.83 382.84 1115.66 389.15C1102.79 404.86 1084.31 417.28 1064.97 423.5C1044.06 430.22 1022.31 432.13 1000.64 427.69C936.7 414.57 894.22 350.46 907.16 286.55C914.73 249.17 941.49 216.92 976.13 201.59C986.34 197.07 1003.74 191.14 1014.64 193.5C1013.59 199.74 1012.55 205.97 1011.5 212.21C975.36 218.32 945.91 238.67 931.63 273.17C929.07 279.37 927.22 285.91 925.97 292.5C925.21 296.5 925.5 301.17 924.11 304.86ZM345.66 230.33C349.7 229.61 353.67 229.67 357.65 230.7C385.47 237.86 383.76 279.79 355.43 284.74C320.23 290.89 311.5 236.44 345.66 230.33ZM413.26 230.46C422.01 240.63 430.75 250.81 439.5 260.99C448.39 250.83 457.28 240.66 466.17 230.5C466.17 248.33 466.17 266.15 466.17 283.98C463.43 283.98 460.69 283.98 457.96 283.98C457.96 273.38 457.96 262.78 457.96 252.19C451.8 259.18 445.65 266.17 439.5 273.16C433.83 266.3 428.17 259.44 422.5 252.58C419.66 262.15 421.96 273.9 421.43 283.94C418.71 283.94 415.98 283.94 413.26 283.94C413.26 266.11 413.26 248.28 413.26 230.46ZM593.5 230.15C601.41 248.07 609.32 265.99 617.22 283.91C614.32 283.91 611.41 283.91 608.5 283.91C607.17 280.94 605.83 277.96 604.5 274.98C596.89 274.98 589.28 274.98 581.67 274.98C580.28 277.98 578.89 280.97 577.5 283.96C574.83 283.96 572.17 283.96 569.5 283.96C577.5 266.02 585.5 248.09 593.5 230.15ZM684.56 238.5C682.54 239.82 680.52 241.15 678.5 242.47C676.97 240.94 675.34 239.06 673.24 238.32C667.85 236.41 659.57 238.32 660.8 245.5C661.54 249.83 667.03 251.49 670.49 253.02C678.63 256.63 687.47 259.98 687.04 270.5C686.27 288.96 658.4 289.55 649.99 274.5C652.16 273.07 654.33 271.64 656.5 270.21C659.25 274.16 662.58 277.22 667.63 277.62C672.66 278.02 678.71 275.36 678.38 269.5C678.08 264.2 671.79 262.46 667.77 260.71C659.58 257.14 651.63 253.16 652.48 242.79C653.74 227.33 680.11 225.19 684.56 238.5ZM756.26 237.5C754.34 239.15 752.42 240.8 750.5 242.45C748.99 240.83 747.47 239.01 745.29 238.27C739.92 236.46 731.57 238.28 732.76 245.5C733.5 250 739.5 251.94 743.11 253.43C751.2 256.76 759.14 260.35 758.8 270.5C758.18 289.55 729.6 288.8 721.91 274.5C724.11 273.06 726.3 271.62 728.5 270.18C733.68 278.8 750.92 281.24 750.26 269.5C749.97 264.21 743.83 262.44 739.79 260.68C730.52 256.64 720.51 250.88 725.33 238.78C730.32 226.26 749.52 227.78 756.26 237.5ZM505.97 230.98C514.78 230.64 527.02 228.68 534.82 233.66C544.98 240.14 544.62 256.66 534.33 262.85C528.44 266.38 520.9 265.26 514.34 265.5C514.34 271.66 514.34 277.83 514.34 283.99C511.55 283.99 508.76 283.99 505.97 283.99C505.97 266.32 505.97 248.65 505.97 230.98ZM345.6 238.22C323.39 243.74 330.5 282.65 355.4 276.78C378.6 271.31 371.32 231.83 345.6 238.22ZM514.34 257.58C519.35 258.28 525.98 259.12 530.32 255.86C535.96 251.64 534.7 241.97 528.31 239.19C524.13 237.36 518.72 238.06 514.34 238.5C514.34 244.86 514.34 251.22 514.34 257.58ZM593.5 248.07C590.76 254.62 588.02 261.18 585.27 267.74C590.76 267.74 596.24 267.74 601.72 267.74C598.98 261.18 596.24 254.62 593.5 248.07ZM187.91 252.03C187.57 255.39 187.23 258.75 186.9 262.11C185.79 262.58 184.68 263.04 183.57 263.5C188.8 265.17 194.02 266.83 199.25 268.5C200.73 274.5 202.21 280.5 203.69 286.5C205.29 280.45 206.9 274.39 208.5 268.34C213.5 266.9 218.5 265.46 223.5 264.03C222.7 263.6 221.89 263.16 221.09 262.73C220.54 259.16 220 255.58 219.45 252C237.3 256.17 255.16 260.33 273.01 264.5C260.37 266.56 247.88 268.94 235.37 271.71C230.08 272.88 224.42 273.7 219.5 275.94C214.17 296.9 208.83 317.85 203.5 338.81C198.28 317.71 193.07 296.6 187.85 275.5C171.15 270.58 153.99 267.47 136.87 264.5C153.88 260.34 170.89 256.19 187.91 252.03ZM1006.58 297.93C1006.04 301.9 1005.5 305.87 1004.96 309.85C1003.59 310.4 1002.23 310.95 1000.86 311.5C1007.19 313.5 1013.53 315.5 1019.86 317.5C1021.74 324.49 1023.62 331.48 1025.5 338.47C1027.17 331.38 1028.83 324.28 1030.5 317.18C1036.79 315.29 1043.08 313.39 1049.37 311.5C1047.95 310.96 1046.52 310.42 1045.1 309.88C1044.57 305.89 1044.03 301.9 1043.5 297.92C1063.92 302.44 1084.35 306.97 1104.77 311.5C1101.32 313.94 1091.38 314.43 1086.71 315.36C1072.43 318.2 1057.48 320.7 1043.72 325.5C1037.64 350.25 1031.57 375.01 1025.5 399.76C1022.26 395.96 1021.23 383.95 1019.82 378.56C1015.24 361.03 1012.55 342.72 1006.85 325.5C999.81 322.71 991.96 321.31 984.55 319.8C972.49 317.33 960.31 315.06 948.29 312.5C967.72 307.64 987.15 302.79 1006.58 297.93ZM260.74 542.5C260.74 544.83 260.74 547.17 260.74 549.5C245.58 553.73 233.48 559.2 227.62 575.15C216.56 605.21 243.26 635.08 274.31 628.66C281.7 627.13 288.86 622.98 293.98 617.48C295.96 615.35 297.59 612.43 299.5 610.67C302.01 610.67 304.52 610.67 307.03 610.67C306 615.46 302.93 619.42 299.5 623C287.38 635.69 269.49 639.89 252.58 635.78C225.73 629.25 210.58 597.99 220.18 572.6C223.18 564.67 228.12 557.6 234.77 552.3C241.86 546.64 251.57 542.3 260.74 542.5ZM305.22 561.5C303 563.26 300.44 563.68 297.5 564.23C288.52 555.63 282.27 551.74 269.78 549.5C269.78 547.17 269.78 544.83 269.78 542.5C283.89 541.99 297.04 550.53 305.22 561.5ZM960.6 542.3C971.28 540.71 982.72 541.79 993.5 541.79C1013.83 541.78 1034.17 541.8 1054.5 541.78C1072.28 541.76 1090.31 540.07 1105.53 550.97C1127.66 566.8 1126.32 587.13 1126.48 611.5C1126.6 630.84 1126.44 650.17 1126.44 669.5C1126.44 684.27 1127.89 699.84 1126 714.5C1124.23 728.27 1116.66 740.86 1105.33 748.86C1090.22 759.53 1072.03 757.75 1054.5 757.75C1033.17 757.76 1011.83 757.79 990.5 757.75C964.15 757.7 943.45 759.88 926.57 735.91C918.09 723.87 918.14 709.63 918.15 695.5C918.17 681.83 918.16 668.17 918.15 654.5C918.14 639.17 918.18 623.83 918.17 608.5C918.16 598.59 917.28 588.18 919.98 578.52C925.21 559.81 941.21 545.2 960.6 542.3ZM354.8 568.4C376.95 562.02 385.86 595.12 366.17 601.59C343.02 609.2 333.65 574.5 354.8 568.4ZM401.5 568.33C406.83 574.68 412.17 581.03 417.5 587.38C422.91 581.06 428.32 574.73 433.73 568.4C433.73 579.47 433.73 590.54 433.73 601.61C432.25 601.77 430.26 602.52 428.93 601.42C427.93 600.59 428.48 597.63 428.48 596.5C428.48 591.76 428.67 587.01 428.5 582.28C424.83 586.53 421.17 590.78 417.5 595.03C413.83 590.67 410.17 586.32 406.5 581.96C405.1 587.36 407.68 598.27 404.5 602.02C403.37 601.92 401.85 602.27 401.01 601.27C399.63 599.62 400.63 594.54 400.66 592.5C400.75 585.55 399.2 574.52 401.5 568.33ZM465.5 590.54C465.24 592.74 465.74 599.77 464.79 601.24C463.83 602.74 464.77 600.71 463.5 601.98C458.13 601.52 459.76 598.03 459.77 593.5C459.8 585.19 459.48 576.78 459.97 568.5C465.15 567.63 473.02 566.98 477.85 569.63C484.18 573.1 485.13 583.46 479.33 587.87C475.28 590.95 470.19 589.92 465.5 590.54ZM516.5 568.11C521.41 579.24 526.32 590.37 531.23 601.5C525.24 602.53 525.92 600.77 523.5 596.15C518.66 596.15 513.82 596.15 508.97 596.15C506.73 600.89 507.26 601.98 501.5 601.86C501.63 598.17 504.1 594.57 505.61 591.16C508.32 585.04 512.34 572.6 516.5 568.11ZM572.5 573.78C567.23 576.45 564.88 570.22 558.71 574.5C555.59 585.1 577.76 580.94 574.57 595.16C573.01 602.11 564.46 603.77 558.53 602.01C556.47 601.4 552 599.1 551.91 596.48C551.9 595.92 552.43 595.45 552.5 594.89C553.47 594.41 554.17 593.68 555.34 593.95C556.53 594.21 557.69 596.04 558.81 596.65C563.43 599.19 568.61 597.86 569.53 592.5C566.04 584.42 550.31 587.47 553.17 574.59C555.17 565.55 572.64 565.34 572.5 573.78ZM617.5 573.75C611.73 577.04 610.66 569.42 603.6 574.5C600.67 585.33 623.04 580.95 619.06 595.47C616.26 605.72 599.84 604.51 596.52 595.5C597.18 595.05 598.68 593.53 599.53 593.53C600.85 593.52 602.57 596.09 603.76 596.75C608.47 599.35 612.99 597.52 614.09 592.5C610.55 584.95 595.91 586.73 597.74 575.5C599.33 565.75 617.43 565.1 617.5 573.75ZM1023.5 569.56C1022.51 572.54 1021.52 575.52 1020.52 578.5C1018.4 579.5 1016.27 580.5 1014.14 581.5C1016.26 582.04 1018.38 582.58 1020.5 583.12C1021.5 586.13 1022.5 589.14 1023.5 592.15C1024.37 589.27 1025.23 586.38 1026.1 583.5C1028.19 582.5 1030.28 581.5 1032.37 580.5C1030.25 579.83 1028.12 579.17 1026 578.5C1025.17 575.52 1024.33 572.54 1023.5 569.56ZM355.78 573.34C342.31 577.61 348.23 601.05 362.78 597.37C378.04 593.51 372.6 568 355.78 573.34ZM465.19 573.12C465.19 577.29 465.19 581.47 465.19 585.64C468.4 585.85 472.25 586.45 475.14 584.6C478.68 582.33 478.93 576.45 475.36 574.12C472.5 572.25 468.38 572.95 465.19 573.12ZM516.5 579.56C514.75 583.58 512.99 587.6 511.24 591.61C514.48 591.61 517.73 591.61 520.98 591.61C519.49 587.6 517.99 583.58 516.5 579.56ZM257.57 583.87C257.68 585.22 257.8 586.58 257.91 587.93C257.46 589.29 257.38 588.67 258.5 589.68C260.07 590.29 261.64 590.89 263.22 591.5C263.99 594.17 264.76 596.83 265.52 599.5C266.24 596.83 266.97 594.17 267.69 591.5C269.29 590.92 270.9 590.34 272.5 589.76C273.78 588.63 273.68 589.32 273.14 587.88C273.3 586.53 273.46 585.18 273.61 583.84C281.58 585.7 289.54 587.57 297.5 589.44C289.48 591.13 281.47 592.81 273.45 594.5C270.71 601.46 269.49 617.16 265.5 622C265.19 621.68 264.57 621.74 264.32 621.37C263.16 619.64 262.99 615.91 262.54 613.89C261.14 607.63 260.37 600.26 257.67 594.5C250.06 592.83 242.44 591.17 234.83 589.5C242.41 587.62 249.99 585.75 257.57 583.87ZM1076.94 620.5C1068.3 609.17 1057.43 600.05 1043.56 595.84C1039.92 594.73 1033.22 592.65 1029.9 593.97C1029.9 596.82 1029.9 599.66 1029.9 602.51C1035.83 604.95 1042.32 605.42 1048.25 608.27C1055.64 611.82 1060.82 617.47 1066.5 623.13C1069.98 622.25 1073.46 621.38 1076.94 620.5ZM1016.77 593.55C1005.81 594.8 995.62 597.67 986.4 603.94C979.79 608.44 973.8 614.27 969.54 621.06C944.27 661.4 967.19 713.12 1014.5 720.09C1022.17 721.22 1029.98 720.93 1037.51 719.03C1045.7 716.96 1053.55 713.96 1060.42 708.93C1068.63 702.92 1074.84 695.4 1079.67 686.5C1076.28 685.63 1072.89 684.75 1069.5 683.88C1057.83 701.32 1043.41 711.19 1021.5 710.67C979.55 709.68 953.4 659.54 978.7 625.23C985.11 616.53 993.5 610.02 1003.63 606.16C1007.93 604.53 1012.59 604.27 1016.77 602.5C1016.77 599.52 1016.77 596.53 1016.77 593.55ZM1012.77 649.94C1007.26 650.65 1001.88 652.67 996.5 654.06C992.61 655.06 987.72 655.39 984.65 657.5C994.27 659.71 1003.88 661.92 1013.5 664.13C1016.83 677.63 1020.17 691.14 1023.5 704.65C1026.83 691.12 1030.17 677.59 1033.5 664.06C1044.27 661.54 1055.04 659.02 1065.81 656.5C1055.33 654.3 1044.84 652.1 1034.36 649.9C1030.74 632.83 1027.12 615.76 1023.5 598.69C1019.92 615.77 1016.34 632.86 1012.77 649.94ZM1035.05 655.94C1035.05 655.98 1035.65 656.27 1035.54 656.5C1035.26 657.07 1027.67 659.07 1026.5 659.48C1025.5 662.65 1024.5 665.83 1023.5 669C1022.41 665.83 1021.32 662.67 1020.23 659.5C1017.36 658.43 1013.87 658.14 1011.95 656.01C1014.8 655.23 1017.65 654.45 1020.5 653.66C1021.5 649.34 1022.5 645.02 1023.5 640.7C1024.5 645 1025.5 649.31 1026.5 653.62C1029.35 654.39 1032.2 655.17 1035.05 655.94ZM559.24 789C559.48 789.17 559.72 789.33 559.97 789.5C560 791.17 560.03 792.83 560.07 794.5C559.79 794.67 559.51 794.83 559.24 795C559.24 793 559.24 791 559.24 789ZM539.5 889.45C543.2 890.89 546.14 896.26 548.5 899.49C549.24 896.02 548.65 892.35 550.5 889.55C550.82 890 551.49 890.16 551.73 890.65C552.27 891.8 552.27 903.23 551.73 904.39C551.49 904.91 550.82 905.12 550.5 905.6C547.5 902.33 544.5 899.07 541.5 895.81C541.51 898.12 542.24 902.47 541.02 904.42C539.56 906.76 541.32 903.49 539.5 905.52C538.18 900.94 537.71 893.96 539.5 889.45ZM718.1 890.5C717.6 891.07 716.23 893.96 715.29 891.41C714.46 889.17 717.52 890.41 718.1 890.5ZM612.5 891.07C613.62 893.54 613.98 894.3 616.53 895.5C615.88 896.01 613.9 897.14 613.53 897.83C611.53 901.65 615.95 902.81 616.1 904.5C616.21 905.71 615.71 904.67 615.5 905.57C608.48 905.18 612.38 899.81 608.94 895.5C610.13 894.02 611.31 892.55 612.5 891.07ZM562.5 894.99C564 896.99 565.94 903.16 563.38 905.09C562.91 905.45 560.17 905.6 559.5 905.7C560 903.79 560.55 903.19 561.83 901.5C556.98 900.13 557.74 901.93 557.5 905.77C549.94 899.77 559.1 899.89 561.56 897.5C560.24 897.1 557.65 897.58 556.64 896.99C554.97 896.01 557.28 896.86 556.02 895.5C558.5 894.35 559.88 894.19 562.5 894.99ZM588.5 894.81C590.72 894.81 592.93 894.81 595.15 894.81C595.15 899.37 595.15 903.94 595.15 908.5C591.89 910.24 586.68 912.5 585.5 907.68C588.56 907.14 590.29 908.78 592.5 905.83C590.89 904.75 588.25 905.88 586.17 904.34C582.17 901.39 584.85 895.79 588.5 894.81ZM603.18 905.1C603.09 904.71 603 904.32 602.91 903.94C603.42 903.12 603.93 902.31 604.44 901.5C603.22 901.5 601.99 901.5 600.77 901.5C600.57 901.91 600.36 902.31 600.16 902.72C599.87 903.42 599.57 904.12 599.28 904.82C598.75 903.72 598.21 902.61 597.68 901.5C599.65 899.08 602.06 899.06 604.42 897.5C602.45 897.17 600.49 896.83 598.53 896.5C601.01 894.38 602.35 894.15 605.5 895.24C607.68 898.22 607.56 902.16 606.5 905.57C605.39 905.41 604.29 905.25 603.18 905.1ZM623.04 903.9C622.71 904.31 622.38 904.72 622.05 905.13C620.96 904.59 619.87 904.04 618.78 903.5C615.48 894.8 625.54 890.45 628.36 899.5C625.94 901.16 623.84 900.74 620.82 901.5C621.56 902.3 622.3 903.1 623.04 903.9ZM652.63 894.37C659.83 893.65 661.58 904.43 654.24 905.59C646.45 906.81 645.03 895.14 652.63 894.37ZM680.5 895C680.07 898.84 678.5 895.75 677.32 898.75C676.06 901.95 677.98 902.19 675.5 905.49C673.94 902.42 674.57 898.61 674.4 895C676.44 895 678.47 895 680.5 895ZM710.5 894.71C712.76 898.45 713.04 902.25 710.5 905.55C708.78 902.64 709.92 899.39 707.5 896.87C703.73 898.72 705.37 902.32 703.5 905.54C701.09 902.3 701.68 898.75 702.5 894.71C705.17 894.71 707.83 894.71 710.5 894.71ZM738.14 894.86C737.87 895.07 737.6 895.29 737.32 895.5C737.93 895.99 738.53 896.48 739.13 896.96C736.76 896.94 736.6 896.87 735.23 898.5C736.77 898.63 738.31 898.76 739.86 898.89C740.58 899.24 741.31 899.58 742.04 899.93C741.86 900.28 741.68 900.64 741.5 900.99C739.38 901.16 737.26 901.33 735.14 901.5C735.79 902.29 736.44 903.07 737.09 903.86C736.66 904.28 736.23 904.71 735.81 905.14C729.74 903.06 731.91 893.12 738.14 894.86ZM751.5 894.73C750.81 897.93 749.16 896.21 748.07 898.62C746.96 901.08 748.29 903.39 746.5 905.54C743.74 903.26 744.78 898.03 745.5 894.73C747.5 894.73 749.5 894.73 751.5 894.73ZM759.99 895.5C758.35 897.04 758.47 896.92 755.75 897.5C758.39 899.64 760.29 899.88 760.91 903.5C757.97 906.25 755.47 906.24 752.89 903.34C754.46 903.34 756.04 903.34 757.61 903.34C756.9 900.3 754.43 900.77 752.95 897.5C754.7 894.18 756.69 894.12 759.99 895.5ZM768.5 894.35C772.07 895.74 772.58 897.33 772.77 900.99C770.35 900.99 767.92 900.99 765.5 900.99C767 902.16 768.5 903.33 770 904.5C763.46 907.66 761.9 902.4 763.5 896.77C765.17 895.96 766.83 895.15 768.5 894.35ZM566.5 894.67C570.2 896.09 569.63 897.73 571.5 901.03C573.15 898.22 573.55 896 576.5 894.7C576.39 898.47 574.11 902.83 571.5 905.62C568.9 902.82 566.68 898.46 566.5 894.67ZM580.5 894.57C582.53 897.59 582.53 902.44 580.5 905.46C578.43 902.43 578.41 897.56 580.5 894.57ZM636.5 894.59C639.26 896.15 639.48 898.68 641.5 900.98C642.83 898.87 644.17 896.75 645.5 894.64C645.56 895.27 645.99 895.84 645.98 896.47C645.96 898.17 641.26 908.44 639.91 909.41C638.7 910.29 637.87 910.08 636.5 910.3C636.64 908.79 635.62 910.12 636.18 908.71C636.89 906.92 639.75 907.54 639.61 904.68C639.43 901.05 636.42 898.25 636.5 894.59ZM662.5 894.61C665.36 898.38 662.17 900.77 666.33 903.5C669.63 901.82 668.74 897.74 669.5 894.57C671.24 896.37 669.69 893.47 671.09 895.6C672.36 897.53 671.48 902.27 671.5 904.58C669.12 905.97 665.12 905.97 662.5 904.79C660.63 901.62 660.63 897.47 662.5 894.61ZM690.5 894.62C691.51 897.7 690.89 901.38 693.5 903.56C697.85 901.3 695.03 898.24 697.5 894.61C699.54 897.55 698.97 901.64 698.5 905.38C695.83 905.38 693.17 905.38 690.5 905.38C689.04 903.1 687.64 898.28 689.13 895.61C689.41 895.12 690.14 895.05 690.5 894.62ZM716.5 894.68C716.84 895.1 717.53 895.18 717.79 895.65C718.56 897.1 718.48 902.92 717.76 904.39C717.51 904.89 716.82 905.04 716.5 905.5C714.64 902.51 714.54 897.62 716.5 894.68ZM730.5 894.71C730.29 898.48 728.5 902.93 725.65 905.5C724.09 904.7 720.74 899.63 721.83 897.7C722.53 896.46 722.5 897.73 723.5 896.72C724.17 898.19 724.83 899.66 725.5 901.13C727.29 898.52 727.71 896.1 730.5 894.71ZM591.5 897.22C585.91 897.11 585.41 901.57 590.5 903.21C592.69 901.09 592.99 899.96 591.5 897.22ZM625.5 898.71C624.43 895.16 622.45 896.97 620.99 898.71C622.49 898.71 624 898.71 625.5 898.71ZM652.5 896.86C649.43 899.24 649.79 902.17 653.5 903.58C657.77 901.23 656.96 897.88 652.5 896.86ZM770.07 898.7C768.02 896.34 767.57 895.88 765.34 898.7C766.92 898.7 768.49 898.7 770.07 898.7Z" fill="#0b244a" fill-rule="evenodd" stroke="#0b244a" stroke-width="0.25" stroke-linejoin="round"/>
<path d="M203.5 126.02C205.17 130.96 206.83 135.91 208.5 140.85C212.5 142.1 216.5 143.35 220.5 144.6C216.12 146.24 211.74 147.87 207.36 149.5C206.07 154.05 204.79 158.6 203.5 163.14C202.17 158.36 200.83 153.58 199.5 148.8C195.34 147.37 191.19 145.93 187.03 144.5C191.19 143.17 195.35 141.83 199.5 140.5C200.83 135.67 202.17 130.85 203.5 126.02ZM1044.82 167.5C1041.41 170.48 1034.87 169.43 1030.83 172.38C1027.78 174.61 1026.22 184.91 1025.5 188.7C1021.81 185.1 1023.75 177.27 1020.29 173.14C1016.77 168.94 1008.74 170.78 1005.3 167.5C1009.38 166.33 1017.04 165.84 1020.01 162.52C1023.79 158.32 1022.84 150.36 1025.26 145.5C1027.66 150.23 1026.28 158.11 1029.98 162.51C1032.19 165.12 1041.36 166.56 1044.82 167.5ZM219.45 252C220 255.58 220.54 259.16 221.09 262.73C216.89 261.47 212.7 260.22 208.5 258.96C206.83 252.93 205.17 246.9 203.5 240.88C202.17 246.79 200.83 252.71 199.5 258.62C195.3 259.79 191.1 260.95 186.9 262.11C187.23 258.75 187.57 255.39 187.91 252.03C193.16 226.19 198.41 200.34 203.67 174.5C208.93 200.33 214.19 226.17 219.45 252ZM1043.5 297.92C1044.03 301.9 1044.57 305.89 1045.1 309.88C1040.23 308.52 1035.37 307.16 1030.5 305.79C1028.83 298.28 1027.17 290.76 1025.5 283.24C1023.72 290.66 1021.95 298.08 1020.17 305.5C1015.1 306.95 1010.03 308.4 1004.96 309.85C1005.5 305.87 1006.04 301.9 1006.58 297.93C1009.75 289.54 1010.63 279.38 1012.15 270.52C1014.43 257.13 1017.16 243.75 1019.71 230.41C1020.73 225.1 1021.87 219.79 1022.77 214.47C1023.34 211.09 1023.26 206.8 1025.5 204.24C1031.5 235.47 1037.5 266.69 1043.5 297.92ZM568.5 306.11C573.62 317.57 578.74 329.04 583.87 340.5C577.32 341.38 577.85 340.19 575.5 334.84C570.83 334.84 566.17 334.84 561.5 334.84C560.5 336.77 559.5 338.7 558.5 340.64C556.46 340.64 554.43 340.64 552.39 340.64C554.48 333.04 558.74 325.71 561.99 318.5C563.83 314.43 565.42 309.25 568.5 306.11ZM623.26 311.5C622.01 312.72 620.75 313.94 619.5 315.16C615.72 312.05 611.74 309.68 607.5 313.65C606.83 324.47 628.59 318.85 623.95 334.44C620.76 345.15 602.68 342.68 599.39 333.5C600.76 332.56 602.13 331.62 603.5 330.67C607.61 334.96 612.33 338.03 617.75 333.5C617.86 331.9 618.27 330.54 617.43 329.04C616.25 326.94 612.7 326.53 610.66 325.79C605.44 323.9 600.44 320.79 601.06 314.5C602.19 303.07 617.64 304.23 623.26 311.5ZM665.98 311.98C662.68 311.98 659.38 311.98 656.09 311.98C656.09 321.54 656.09 331.09 656.09 340.65C654.81 340.67 651.27 341.34 650.33 340.17C649.16 338.71 649.84 334.29 649.84 332.5C649.82 325.67 650.31 318.77 649.5 311.98C646.44 311.98 643.37 311.98 640.31 311.98C640.24 310.67 639.61 308.09 640.5 306.92C641.25 305.93 643.45 306.41 644.5 306.41C648.83 306.44 653.17 306.45 657.5 306.42C659.23 306.41 664.51 305.39 665.68 306.83C666.62 307.99 666.02 310.67 665.98 311.98ZM701.06 327.5C703.65 331.87 706.24 336.25 708.82 340.62C706.72 340.62 704.61 340.62 702.5 340.62C700.93 338.16 696.43 329.6 694.04 328.52C692.67 327.9 691.06 328.37 689.64 328.5C689.64 332.55 689.64 336.59 689.64 340.64C687.74 340.64 685.83 340.64 683.92 340.64C682.38 334.29 683.52 327.02 683.4 320.5C683.33 316.19 682.56 310.39 684.28 306.5C689.7 306.52 695.92 305.37 701.07 307.46C711.09 311.54 708.76 322.62 701.06 327.5ZM737.59 306.29C744.03 305.06 751.25 306.71 755.42 312.1C762.44 321.18 759.26 337.53 747.27 340.67C739.32 342.76 730.9 339.94 726.71 332.74C721.16 323.19 726.18 308.45 737.59 306.29ZM700.71 314.5C697.5 311.48 693.77 311.91 689.63 312.5C689.63 315.83 689.63 319.17 689.63 322.5C696.96 323.74 701.93 323.2 700.71 314.5ZM737.78 312.33C724.32 316.9 731.28 339.89 745.47 334.98C759.32 330.19 753.15 307.1 737.78 312.33ZM568.5 318.65C566.83 322.24 565.17 325.84 563.5 329.44C566.5 329.44 569.5 329.44 572.5 329.44C571.17 325.84 569.83 322.24 568.5 318.65ZM392.1 463.01C396.59 462.93 399.19 462.77 400.2 467.5C397.85 471.36 396.58 469.37 394.79 471.15C393.94 472 394.71 473.44 393.9 474.23C392.58 475.53 394.22 473.44 392.1 474.67C392.1 470.78 392.1 466.9 392.1 463.01ZM403.5 463.31C405.83 463.31 408.17 463.31 410.5 463.31C412.19 469.15 410.3 466.63 410.25 470.51C410.23 472.02 411.46 473.24 411.5 474.78C408.93 474.07 408.29 472.65 406.5 470.68C405.83 472.08 405.17 473.47 404.5 474.86C402.34 472.09 403.18 466.89 403.5 463.31ZM416.5 462.87C417.52 464.38 416.86 462.3 417.53 463.81C417.9 464.65 417.9 473.34 417.45 474C416.84 474.9 416.35 474.39 415.5 474.7C414.72 471 414.23 465.69 416.5 462.87ZM422.5 462.87C424.17 464.81 425.83 466.74 427.5 468.68C428.95 466.06 429.81 464.17 432.5 462.97C432.94 464.66 433.99 472.88 432.73 474.18C431.46 475.48 433.28 473.27 430.93 474.74C430.93 472.73 430.93 470.72 430.93 468.71C426.34 472.93 427.91 472.32 423.36 469.02C423.36 470.95 423.36 472.89 423.36 474.82C422.79 474.45 421.9 474.64 421.43 474.15C421.04 473.73 420.89 464.4 421.26 463.72C422.21 462 421.2 464.4 422.5 462.87ZM441.5 462.9C444.29 465.62 446.87 471.02 446.5 474.83C439.21 470.6 442.88 472.49 436.5 474.71C438.17 470.77 439.83 466.84 441.5 462.9ZM450.5 463.14C453.36 462.97 455.28 462.83 457.67 464.5C458.37 468.78 456.53 468.24 456.5 470.48C456.48 472.36 458.02 471.33 457.5 474.91C455.83 473.65 454.17 472.4 452.5 471.15C452.17 472.41 451.83 473.68 451.5 474.95C450.32 473.78 451.14 475.61 450.24 474.22C449.21 472.62 450.15 465.13 450.5 463.14ZM460.5 463.29C463.39 463.6 463.76 464.56 465.5 466.93C466.83 465.59 468.17 464.26 469.5 462.92C468.17 466.9 466.83 470.88 465.5 474.86C463.83 471.01 462.17 467.15 460.5 463.29ZM1003.5 462.9C1004.77 464.36 1003.79 462.11 1004.72 463.75C1005.29 464.75 1005.27 473.22 1004.66 474.18C1003.85 475.43 1004.58 473.76 1003.5 474.83C1002.11 471.01 1002.18 466.7 1003.5 462.9ZM1018.5 465.63C1016.44 466.7 1015.09 465.38 1012.5 465.32C1009.66 468.19 1010.14 470.29 1013.34 472.5C1015.81 472.27 1016.36 471.21 1018.5 472.38C1015.4 477.44 1007.77 474.05 1008.04 468.51C1008.29 463.3 1016.38 460.27 1018.5 465.63ZM1025.64 463.18C1033.21 461.41 1036.63 472.85 1029.23 474.63C1021.74 476.42 1018.13 464.94 1025.64 463.18ZM1037.5 462.87C1039.5 465.01 1041.5 467.16 1043.5 469.31C1044.13 466.86 1044.12 464.73 1045.5 462.83C1046.73 466.65 1046.95 471.15 1045.5 474.93C1043.5 472.69 1041.5 470.45 1039.5 468.21C1038.93 471.3 1039.69 472.78 1037.5 474.92C1036.22 471.13 1036.38 466.69 1037.5 462.87ZM394.5 467.93C395.54 467.83 397.6 468.57 397.53 466.63C397.47 464.84 395.51 465.55 394.53 465.5C394.52 466.31 394.51 467.12 394.5 467.93ZM408.95 467.5C408.1 464.98 408.31 465.33 405.56 465.5C405.54 466.18 405.52 466.86 405.5 467.54C406.65 467.53 407.8 467.51 408.95 467.5ZM452.5 465.39C452.5 466.21 452.5 467.04 452.5 467.86C453.55 467.74 454.59 467.62 455.64 467.5C454.96 465.08 455.08 465.48 452.5 465.39ZM1025.8 465.4C1021.84 467 1024.47 474.06 1028.7 472.26C1033.15 470.37 1030.4 463.54 1025.8 465.4ZM441.5 467.25C441.12 468 440.74 468.75 440.36 469.5C441.07 469.6 441.79 469.71 442.5 469.81C442.17 468.96 441.83 468.11 441.5 467.25ZM369.91 469.47C356.06 469.47 342.21 469.47 328.36 469.47C342.21 469.47 356.06 469.47 369.91 469.47ZM532.79 469.47C518.88 469.47 504.96 469.47 491.05 469.47C504.96 469.47 518.88 469.47 532.79 469.47ZM976.49 469.47C962.6 469.47 948.71 469.47 934.82 469.47C948.71 469.47 962.6 469.47 976.49 469.47ZM1113.83 469.47C1099.98 469.47 1086.14 469.47 1072.3 469.47C1086.14 469.47 1099.98 469.47 1113.83 469.47ZM265.5 525.62C266.71 530.22 267.43 531.23 272.05 532.5C267.28 535.52 267.25 534.58 265.5 540.4C262.4 533.68 264.59 536.35 258.61 532.5C264.08 530.99 263.21 530.34 265.5 525.62ZM273.61 583.84C273.46 585.18 273.3 586.53 273.14 587.88C271.28 587.42 269.41 586.96 267.55 586.5C266.87 583.62 266.18 580.74 265.5 577.87C264.83 580.77 264.17 583.67 263.5 586.57C261.64 587.02 259.77 587.47 257.91 587.93C257.8 586.58 257.68 585.22 257.57 583.87C260.21 571.37 262.86 558.87 265.5 546.37C268.2 558.86 270.91 571.35 273.61 583.84ZM1023.5 569.56C1024.33 572.54 1025.17 575.52 1026 578.5C1028.12 579.17 1030.25 579.83 1032.37 580.5C1030.28 581.5 1028.19 582.5 1026.1 583.5C1025.23 586.38 1024.37 589.27 1023.5 592.15C1022.5 589.14 1021.5 586.13 1020.5 583.12C1018.38 582.58 1016.26 582.04 1014.14 581.5C1016.27 580.5 1018.4 579.5 1020.52 578.5C1021.52 575.52 1022.51 572.54 1023.5 569.56ZM1034.36 649.9C1034.59 651.92 1034.82 653.93 1035.05 655.94C1032.2 655.17 1029.35 654.39 1026.5 653.62C1025.5 649.31 1024.5 645 1023.5 640.7C1022.5 645.02 1021.5 649.34 1020.5 653.66C1017.65 654.45 1014.8 655.23 1011.95 656.01C1012.22 653.99 1012.49 651.97 1012.77 649.94C1016.34 632.86 1019.92 615.77 1023.5 598.69C1027.12 615.76 1030.74 632.83 1034.36 649.9ZM511.5 615.18C514.14 618.93 519.56 629.9 519.5 634.12C516.04 633.43 516.44 631.34 513.5 630.84C507.92 629.87 507.94 633.56 503.5 633.87C506.17 627.64 508.83 621.41 511.5 615.18ZM541.54 619.5C538.34 619.34 537.11 617.01 533.95 619.5C535.4 623.36 540.13 623.34 542.96 626.5C543.7 636.81 531.21 636.97 530.26 629.5C534.17 628.98 536.07 632.97 539.93 629.5C538.23 625.34 532.83 625.58 530.34 621.5C530.64 617.69 532.31 615.12 536.5 615.02C538.07 614.98 541.72 615.42 541.99 617.59C542.08 618.24 541.57 618.85 541.54 619.5ZM567.52 616.5C566.12 618.44 564.76 618.27 562.32 618.5C562.02 621.05 562.64 631.93 561.74 633.28C561.1 634.26 560.42 633.79 559.5 634.14C557.08 630.44 560.14 621.28 557.97 618.75C556.88 617.47 554.97 618.72 553.69 617.92C551.97 616.84 554.31 617.92 552.86 616.5C554.45 615.33 552.09 616.19 553.76 615.39C555.92 614.35 566 615 567.52 616.5ZM587.83 627.5C589.06 629.5 590.28 631.51 591.5 633.51C585.92 634.03 586.6 629.75 582.5 627.14C579.94 630.23 582.69 630.94 579.5 634.17C578.03 632.65 579.24 635.09 578.11 633.31C576.78 631.2 577.89 618.5 578.12 615.5C583.45 614.7 593.02 615.1 590.76 623.32C590.35 624.81 588.7 626.27 587.83 627.5ZM607.74 615.33C620.19 612.19 624.25 630.84 613.44 633.9C600.42 637.59 596.44 618.19 607.74 615.33ZM581.27 618.27C581.27 620.19 581.27 622.11 581.27 624.03C584.45 624.16 585.99 624.32 587.75 621.5C586.43 618.13 584.73 618.24 581.27 618.27ZM608.73 618.32C600.86 620.14 604.18 632.89 612.4 630.83C619.93 628.95 616.35 616.55 608.73 618.32ZM511.5 622.11C510.83 624.03 510.17 625.96 509.5 627.88C511 627.88 512.49 627.88 513.99 627.88C513.16 625.96 512.33 624.03 511.5 622.11ZM382.5 650.46C385.93 651.01 385.32 652.52 386.5 655.87C387.5 653.87 388.5 651.87 389.5 649.87C390.5 651.9 391.5 653.93 392.5 655.96C393.94 653.49 394.12 651.46 396.5 649.95C396.66 653.67 394.93 658.44 392.5 661.21C391.5 659.23 390.5 657.24 389.5 655.25C388.5 657.26 387.5 659.26 386.5 661.26C384.1 658.39 383.26 654.2 382.5 650.46ZM402.5 650.06C411.74 649.47 413.05 658.63 407.28 660.78C399.66 663.63 396.23 654.63 402.5 650.06ZM413.5 650.3C416.49 649.86 418.4 649.56 420.83 651.5C421.42 656.64 419.26 655.54 421.5 660.66C418 660.45 418.76 659.87 416.5 657.33C415.83 658.66 415.17 659.98 414.5 661.31C412.59 658.32 413.3 653.99 413.5 650.3ZM434.2 657.5C431.72 661.23 429.16 661.16 424.83 661.28C424.83 657.68 424.83 654.09 424.83 650.5C430.83 649.19 434.31 651.12 434.2 657.5ZM438.5 649.84C440.17 651.68 441.83 653.51 443.5 655.35C444.83 653.52 446.17 651.68 447.5 649.85C449.37 652.68 449.21 658.35 447.5 661.28C446.29 659.41 446.28 658.39 446.5 656.02C441.78 659.04 443.9 659.38 439.33 655.82C439.33 657.65 439.33 659.48 439.33 661.3C438.76 660.82 437.79 660.87 437.33 660.28C436.96 659.82 436.97 651.4 437.31 650.74C438.17 649.07 437.28 651.38 438.5 649.84ZM456.5 649.88C459.3 652.18 461.55 657.57 461.5 661.14C454.21 657.8 457.7 659.9 451.55 660.5C453.2 656.96 454.85 653.42 456.5 649.88ZM465.5 650C468.78 649.95 470.62 649.85 472.71 652.5C472.32 656.65 470.54 656.48 472.95 660.5C470.1 660.89 469.82 659.7 467.92 657.5C467.11 658.78 466.31 660.05 465.5 661.33C464.46 657.61 464.5 653.76 465.5 650ZM476.13 650.02C478.55 651.68 477.86 650.32 478.66 653.5C480.9 651.44 481.38 650.37 484.37 650.5C483.25 652.17 482.13 653.83 481.02 655.5C482.18 657.3 483.34 659.09 484.5 660.89C481.72 660.4 481.09 659.54 479.5 657.13C478.38 658.46 477.25 659.79 476.13 661.11C476.13 657.41 476.13 653.72 476.13 650.02ZM403.5 658.88C408.14 658.49 410.23 653.93 406.21 652.39C401.28 650.51 400.39 655.99 403.5 658.88ZM416.5 652.14C415.39 653.69 415.46 653.43 416.5 655.02C417.22 654.84 417.93 654.67 418.65 654.5C418.04 652.54 418.48 652.95 416.5 652.14ZM427.14 652.14C427.14 654.39 427.14 656.64 427.14 658.89C433.59 658.01 433.67 652.95 427.14 652.14ZM467.5 652.12C467.5 653.09 467.5 654.05 467.5 655.01C468.51 654.51 469.51 654 470.52 653.5C469.51 653.04 468.51 652.58 467.5 652.12ZM456.5 654.28C456.28 655.02 456.05 655.76 455.83 656.5C457.87 656.22 457.84 656.11 456.5 654.28ZM367.56 655.58C353.74 655.58 339.91 655.58 326.09 655.58C339.91 655.58 353.74 655.58 367.56 655.58ZM540.81 655.58C527.02 655.58 513.23 655.58 499.44 655.58C513.23 655.58 527.02 655.58 540.81 655.58ZM371.5 813.77C373.17 815.57 374.83 817.37 376.5 819.17C377.83 817.42 379.17 815.67 380.5 813.92C382.34 816.84 382.46 822.32 380.5 825.07C379.83 823.21 379.17 821.34 378.5 819.48C376.43 822.65 375.82 823.28 373.5 819.93C372.83 821.64 372.17 823.34 371.5 825.04C369.46 822.27 369.49 816.49 371.5 813.77ZM387.75 814.24C394.33 811.71 399.35 821.19 392.82 824.36C385.81 827.78 380.77 816.93 387.75 814.24ZM399.5 813.83C401.59 815.86 403.69 817.89 405.78 819.93C405.78 817.9 405.78 815.87 405.78 813.85C406.32 814.29 407.24 814.2 407.68 814.75C408.53 815.83 407.77 823.28 407.5 824.79C404.57 823.85 403.48 821.52 401.5 819.12C400.89 821.5 401.03 823.28 399.5 825.03C398.29 821.75 397.67 817.01 399.5 813.83ZM422.19 819.5C419.35 829.19 407.42 825 412.02 815.5C416.88 812.52 420.7 814.2 422.19 819.5ZM434.15 816.5C429.94 816.61 425.51 814.58 427.5 821.68C429.93 822.89 431.83 822.27 434.36 822.5C431.19 826.24 424.27 825.49 424.24 819.5C424.2 813.57 431.2 812.42 434.15 816.5ZM438.5 813.76C440 816.07 439.48 816.25 441.5 818.22C444.66 817 443.6 816.28 445.5 813.74C447.28 817.14 446.87 821.59 445.5 825.08C444.14 823.45 444.08 821.67 442.5 820.41C439.37 821.05 440.09 822.76 438.5 825.05C436.73 822.36 436.87 816.62 438.5 813.76ZM450.01 814.03C453.6 813.84 455.64 813.64 457.98 816.5C457.76 817.88 456.37 820.08 456.47 821.29C456.58 822.63 457.47 823.5 457.5 824.92C455.41 824.08 454.78 823.31 453.5 821.37C452.34 822.57 451.17 823.78 450.01 824.99C450.01 821.33 450.01 817.68 450.01 814.03ZM460.74 817.5C464.63 811.21 473.58 813.84 471.62 821.22C470.56 825.22 464.83 826.2 462.12 823.36C460.46 821.62 460.7 819.7 460.74 817.5ZM475.5 813.84C477.17 815.66 478.83 817.48 480.5 819.3C482.09 816.92 482.98 815.16 485.5 813.92C485.88 815.52 486.9 823.04 485.82 824.27C485.35 824.81 484.41 824.64 483.84 825.05C483.84 823.1 483.84 821.15 483.84 819.2C480.35 822.36 480.92 824.27 477.5 819.47C476.84 822.34 477.43 823.01 475.5 825.05C474.32 821.41 474.46 817.54 475.5 813.84ZM496.29 814.5C494.74 815.5 493.2 816.5 491.65 817.5C493.04 818.17 494.42 818.83 495.8 819.5C494.41 820.17 493.01 820.83 491.62 821.5C493.17 822.5 494.72 823.5 496.27 824.5C494.66 824.79 491.36 825.81 489.84 824.63C489.01 823.99 488.97 814.97 489.82 814.28C491.44 812.96 494.63 814.11 496.29 814.5ZM989.5 813.74C991.14 817.33 992.79 820.91 994.43 824.5C992.6 824.31 994.38 825.19 992.75 824.68C990.69 824.05 990.53 821.95 987.64 822.98C986.57 823.36 985.61 824.34 984.5 824.79C984.57 821.14 986.89 816.19 989.5 813.74ZM997.27 814.26C1000.38 813.78 1002.17 813.62 1004.78 815.5C1005.12 823.29 1003.08 818.68 999.83 821.38C998.92 822.14 999.74 823.46 999 824.29C997.57 825.88 999.36 823.41 997.27 824.87C997.27 821.33 997.27 817.8 997.27 814.26ZM1015.21 815.5C1015.71 817.7 1015.56 818.36 1014.5 820.33C1013.34 820.73 1011.1 820.85 1010.33 821.78C1009.69 822.56 1010.57 824.26 1009.29 824.75C1008.84 824.92 1008.26 824.73 1007.87 825C1007.87 821.5 1007.87 818 1007.87 814.5C1010.9 813.75 1012.57 813.7 1015.21 815.5ZM1026.01 813.82C1026.01 817.54 1026.01 821.26 1026.01 824.98C1025.51 824.59 1024.65 824.74 1024.24 824.25C1023.86 823.78 1023.77 815.16 1024.16 814.67C1024.58 814.14 1025.49 814.25 1026.01 813.82ZM1039.04 816.46C1036.86 816.46 1034.68 816.46 1032.5 816.46C1031.91 818.81 1031.78 819.63 1032.5 821.93C1035.31 822.98 1037.05 821.09 1039.28 822.5C1036.09 826.36 1029.19 825.5 1029.1 819.5C1029.01 813.64 1036.09 812.34 1039.04 816.46ZM1049.5 813.97C1052.75 816.01 1053.05 817.75 1052.84 821.5C1049.68 825.85 1045.07 826.02 1042.01 821.5C1041.74 815.84 1043.78 813.65 1049.5 813.97ZM1056.5 813.74C1058.65 815.83 1060.81 817.93 1062.96 820.02C1062.96 817.99 1062.96 815.97 1062.96 813.94C1063.5 814.35 1064.39 814.19 1064.83 814.7C1066.02 816.12 1064.97 823.24 1064.5 824.93C1062.37 822.92 1060.24 820.9 1058.12 818.89C1058.12 820.93 1058.12 822.96 1058.12 825C1057.55 824.6 1056.63 824.8 1056.17 824.29C1055.02 823 1056.1 815.39 1056.5 813.74ZM391.92 816.46C390.45 816.46 388.97 816.46 387.5 816.46C386.77 821.3 389 825.71 393.27 820.5C392.82 819.15 392.37 817.81 391.92 816.46ZM417.5 816.07C412.97 816.49 410.84 820.91 414.87 822.53C419.74 824.5 420.39 818.94 417.5 816.07ZM452.5 816.26C452.5 817.03 452.5 817.81 452.5 818.58C453.53 818.22 454.56 817.86 455.58 817.5C454.56 817.09 453.53 816.67 452.5 816.26ZM467.5 816.17C463.96 816.42 463.48 816.99 463.04 820.5C463.86 821.29 464.68 822.08 465.5 822.86C469.6 821.8 470.73 819.24 467.5 816.17ZM999.5 816.34C999.53 817.06 999.56 817.78 999.58 818.5C1001.49 818.46 1001.32 818.81 1002.67 817.5C1001.33 816.16 1001.4 816.5 999.5 816.34ZM1010.5 816.23C1010.5 817.03 1010.5 817.84 1010.5 818.65C1012.81 818.16 1012.18 818.7 1012.95 816.5C1012.13 816.41 1011.32 816.32 1010.5 816.23ZM1048.5 816.01C1043.62 816.7 1042.65 819.52 1046.5 822.86C1050.87 821.99 1051.99 819.06 1048.5 816.01ZM352.77 820.09C339.27 820.09 325.77 820.09 312.27 820.09C325.77 820.09 339.27 820.09 352.77 820.09ZM554.5 819.95C541.11 819.95 527.73 819.95 514.34 819.95C527.73 819.95 541.11 819.95 554.5 819.95ZM961.95 819.69C948.38 819.69 934.82 819.69 921.25 819.69C934.82 819.69 948.38 819.69 961.95 819.69ZM1126.67 819.68C1113.16 819.68 1099.66 819.68 1086.16 819.68C1099.66 819.68 1113.16 819.68 1126.67 819.68ZM502.55 882.5C503.6 885.83 504.66 889.17 505.71 892.5C509.24 893.83 512.78 895.17 516.31 896.5C513.04 897.56 509.77 898.61 506.5 899.67C505.17 903.39 503.83 907.12 502.5 910.84C501.58 907.79 501.57 902.48 499.46 900.02C497.41 897.63 492.04 897.34 489.18 896.5C492.75 895.17 496.31 893.83 499.88 892.5C500.77 889.17 501.66 885.83 502.55 882.5Z" fill="#cc9645" fill-rule="evenodd" stroke="#cc9645" stroke-width="0.25" stroke-linejoin="round"/>
<path d="M924.11 304.86C924.07 305.88 924.03 306.9 923.99 307.92C923.82 307.78 923.64 307.64 923.47 307.5C923.48 305.89 923.49 304.27 923.5 302.66C923.7 303.39 923.91 304.13 924.11 304.86ZM924 313.07C924.04 314.39 924.08 315.72 924.12 317.04C923.91 317.55 923.71 318.06 923.5 318.57C923.49 316.88 923.48 315.19 923.47 313.5C923.65 313.36 923.82 313.21 924 313.07ZM271.5 695.31C266.89 697.52 266.81 696.19 265.5 701.93C262.73 697.98 264.48 697 259.04 695.5C263.9 692.4 262.6 693.52 265.39 688.5C267.49 693.65 266.19 692.84 271.5 695.31ZM260.32 704.95C260.32 707.33 260.32 709.71 260.32 712.09C246.81 714.63 235.49 720.88 229.1 733.59C215.98 759.71 236.41 791.9 265.5 791.6C276.01 791.48 285.95 787.28 293.41 779.93C295.64 777.74 297.32 774.29 299.5 772.72C301.98 772.72 304.46 772.72 306.94 772.72C302.62 792.07 274.15 801.92 256.67 798.66C227.96 793.32 209.67 762.34 220.2 734.65C223.18 726.83 228.32 719.61 234.87 714.4C242.02 708.71 251.16 704.93 260.32 704.95ZM269.73 705.06C282.98 704.32 297.89 713.04 304.42 724.5C301.78 725.08 299.14 725.66 296.5 726.24C288.59 718.32 281.01 713.66 269.73 711.98C269.73 709.68 269.73 707.37 269.73 705.06ZM265.5 709.13C268.06 721.25 270.61 733.38 273.17 745.5C281.01 747.5 288.85 749.5 296.69 751.5C288.74 753.17 280.79 754.83 272.85 756.5C270.4 766.6 267.95 776.7 265.5 786.79C262.97 776.7 260.43 766.6 257.9 756.5C250.16 754.83 242.41 753.17 234.66 751.5C242.28 749.46 249.89 747.41 257.5 745.37C260.17 733.29 262.83 721.21 265.5 709.13ZM357.69 732.39C380.29 729.35 384.64 764.93 361.5 766.99C339.18 768.98 336.24 735.27 357.69 732.39ZM572.96 737.5C572.08 738.34 571.02 739.84 569.59 739.71C566.16 739.39 562.76 733.06 558.16 740.5C559.43 750.08 576.81 746.9 574.68 759.31C572.87 769.8 556.88 769.19 551.43 760.5C552.78 759.68 554.14 758.86 555.5 758.04C559.32 763.18 567.12 764.5 569.38 757.5C566.26 749.12 550.65 752.06 553.1 739.55C555.02 729.74 568.34 730.94 572.96 737.5ZM617.9 737.5C611.91 743.49 608.52 731.24 603.11 740.5C604.47 750.37 623.8 746.73 618.58 761.13C616.32 767.37 607.89 768.06 602.5 766.07C598.86 764.73 595.39 762.33 598.5 758.79C602.69 757.74 608.58 768.51 614.05 758.5C612.68 749.14 596.48 752.13 597.7 740.5C598.81 730.02 612.99 730.48 617.9 737.5ZM401.5 732.96C406.83 739.33 412.17 745.69 417.5 752.06C422.83 745.76 428.17 739.46 433.5 733.16C434.19 741.21 433.73 749.42 433.72 757.5C433.72 760.57 434.52 764.28 432.5 766.62C431.31 766.55 429.6 766.86 428.79 765.76C428.02 764.72 428.5 762.17 428.5 760.93C428.5 756.16 428.56 751.39 428.5 746.61C424.83 751.01 421.17 755.41 417.5 759.8C413.83 755.46 410.17 751.12 406.5 746.78C405.46 751.59 407.37 763.5 404.5 766.58C399.59 766.19 400.67 762.54 400.66 758.5C400.62 750.51 399.13 740.5 401.5 732.96ZM460.5 732.77C466.2 732.68 473.67 731.51 478.64 734.89C484.32 738.77 484.84 748.45 479.08 752.56C475.15 755.37 470.02 754.72 465.5 754.96C465.15 756.96 465.46 765.06 464.28 765.97C463.29 766.75 463.62 765.88 462.5 766.4C461.25 765.89 461.8 766.88 460.66 766.06C458.88 764.78 459.8 759.45 459.8 757.5C459.82 749.59 458.58 740.36 460.5 732.77ZM516.5 732.76C519.74 739.38 522.54 746.19 525.57 752.91C527.45 757.08 530.4 761.94 530.5 766.4C525.83 766.3 525.42 764.81 523.5 760.92C518.55 760.92 513.59 760.92 508.64 760.92C507.2 765.3 506.32 766.5 501.5 766.16C506.5 755.03 511.5 743.9 516.5 732.76ZM357.69 737.36C343.17 739.93 346.38 764.15 361.5 762.3C377 760.41 373.58 734.54 357.69 737.36ZM465.15 737.78C465.15 741.87 465.15 745.96 465.15 750.05C468.07 750.23 471.42 750.73 474.24 749.67C478.18 748.19 479.16 742.17 476.17 739.34C473.39 736.7 468.58 737.56 465.15 737.78ZM267.5 748.86C266.83 746.07 266.15 743.29 265.48 740.5C264.7 743.17 263.93 745.83 263.15 748.5C261.06 749.5 258.98 750.5 256.89 751.5C258.98 752.17 261.06 752.83 263.15 753.5C263.93 755.99 264.72 758.49 265.5 760.98C266.17 758.36 266.83 755.75 267.5 753.13C269.57 752.59 271.63 752.04 273.7 751.5C271.63 750.62 269.57 749.74 267.5 748.86ZM516.5 744.05C514.8 748.21 513.11 752.37 511.41 756.53C514.5 756.53 517.59 756.53 520.68 756.53C520.67 752.23 518.32 748.07 516.5 744.05ZM513.5 779.29C516.17 785.07 518.83 790.86 521.5 796.64C517.29 796.48 519.39 794.97 516.45 793.98C511.56 792.33 510.01 795.76 506.5 796.95C506.16 791.72 510.61 783.84 513.5 779.29ZM542.81 782.5C539.03 782.92 536.84 779.01 535.09 784.5C539.68 788.17 543.65 786.15 544.03 793.5C541.02 797.9 534.09 799.07 531.5 793.46C535.56 791.19 536.54 796.9 541 792.5C538.38 787.15 532.56 790.38 532.21 782.5C534.74 778.2 541.02 777.53 542.81 782.5ZM559.24 795C559.51 794.83 559.79 794.67 560.07 794.5C560.03 792.83 560 791.17 559.97 789.5C559.72 789.33 559.48 789.17 559.24 789C559.14 787.25 559.81 783.29 558.31 782.14C557.2 781.29 555.84 782.01 553.88 780.5C555.43 779.32 553.13 780.19 554.77 779.38C557.06 778.25 565.98 778.93 567.67 780.5C565.88 781.17 564.09 781.83 562.3 782.5C562.03 787.3 561.77 792.09 561.5 796.89C559.53 796.31 559.85 796.89 559.24 795ZM587.61 790.5C589.07 792.76 590.51 794.45 590.5 796.94C586.45 796 586.05 791.92 582.5 790.27C580.11 793.48 582.87 794.02 579.5 797.02C576.88 793.48 577.81 783.99 578.69 779.5C587.38 778.47 595.44 781.33 587.61 790.5ZM607.73 779.31C620.16 776.23 623.77 793.96 613.4 796.82C600.9 800.26 597.24 781.91 607.73 779.31ZM581.53 782.11C581.53 783.9 581.53 785.7 581.53 787.5C584.42 787.59 585.39 787.58 587.5 785.66C587.17 784.48 586.83 783.29 586.5 782.11C584.84 782.11 583.18 782.11 581.53 782.11ZM607.8 782.36C600.74 785.52 605.73 796.83 613.27 793.74C620.32 790.85 615.24 779.02 607.8 782.36ZM513.5 785.8C512.8 787.47 512.1 789.15 511.4 790.83C512.9 790.83 514.39 790.83 515.89 790.83C515.09 789.15 514.3 787.47 513.5 785.8ZM738.14 894.86C741.27 895.57 741.9 896.78 742.04 899.93C741.31 899.58 740.58 899.24 739.86 898.89C739.62 898.25 739.38 897.61 739.13 896.96C738.53 896.48 737.93 895.99 737.32 895.5C737.6 895.29 737.87 895.07 738.14 894.86ZM600.16 902.72C601.07 903.12 601.99 903.53 602.91 903.94C603 904.32 603.09 904.71 603.18 905.1C601.88 905 600.58 904.91 599.28 904.82C599.57 904.12 599.87 903.42 600.16 902.72ZM622.05 905.13C622.38 904.72 622.71 904.31 623.04 903.9C624.53 903.7 626.01 903.51 627.5 903.31C626.5 905.64 624.23 905.91 622.05 905.13ZM735.81 905.14C736.23 904.71 736.66 904.28 737.09 903.86C738.56 903.58 740.03 903.3 741.5 903.02C740.81 905.78 738.37 905.94 735.81 905.14Z" fill="#111114" fill-rule="evenodd" stroke="#111114" stroke-width="0.25" stroke-linejoin="round"/>
</svg>